<?xml version="1.0" encoding="iso-8859-1"?>
<!-- Generator: Adobe Illustrator 21.0.0, SVG Export Plug-In . SVG Version: 6.00 Build 0)  -->
<svg xmlns="http://www.w3.org/2000/svg" xmlns:xlink="http://www.w3.org/1999/xlink" version="1.1" id="Capa_1" x="0px" y="0px" viewBox="0 0 578.896 578.896" style="enable-background:new 0 0 578.896 578.896;" xml:space="preserve" width="512" height="512">
<g>
	<g id="Tractor">
		<path style="fill:#FFD422;" d="M189.638,374.286v0.898c3.292-0.605,6.633-0.905,9.981-0.898H189.638z"/>
		<circle style="fill:#57565C;" cx="359.315" cy="434.172" r="29.943"/>
		<circle style="fill:#57565C;" cx="479.086" cy="434.172" r="29.943"/>
		<circle style="fill:#57565C;" cx="239.543" cy="434.172" r="29.943"/>
		<path style="fill:#957856;" d="M79.848,434.172V314.4c0-22.049-17.875-39.924-39.924-39.924H0V314.4h19.962    c11.025,0,19.962,8.937,19.962,19.962v79.848c0,11.025-8.937,19.962-19.962,19.962H0v39.924h39.924    C61.973,474.096,79.848,456.221,79.848,434.172z"/>
		<path style="fill:#A78966;" d="M155.104,394.248c0.699-0.798,1.397-1.597,2.196-2.395c8.722-8.868,20.055-14.71,32.338-16.668    v-20.86H79.848v39.924H155.104z"/>
		<path style="fill:#FFD422;" d="M309.41,214.591H189.638v119.772H309.41V214.591z"/>
		<polygon style="fill:#E0E0E2;" points="469.105,124.762 395.216,124.762 349.334,171.124 349.334,234.553 469.105,234.553   "/>
		<path style="fill:#A1A0A6;" d="M519.01,374.286H359.315v29.943c16.537,0,29.943,13.406,29.943,29.943    c0,16.537-13.406,29.943-29.943,29.943v29.943H519.01c33.053-0.049,59.836-26.832,59.886-59.886    C578.896,401.098,552.084,374.286,519.01,374.286z M479.086,464.115c-16.537,0-29.943-13.406-29.943-29.943    c0-16.537,13.406-29.943,29.943-29.943s29.943,13.406,29.943,29.943C509.029,450.709,495.623,464.115,479.086,464.115    L479.086,464.115z"/>
		<path style="fill:#898890;" d="M329.372,434.172c0-16.537,13.406-29.943,29.943-29.943v-29.943H199.619    c-3.347-0.007-6.689,0.294-9.981,0.898c-12.283,1.958-23.617,7.8-32.338,16.668c-0.798,0.798-1.497,1.597-2.196,2.395    c-9.921,10.927-15.403,25.165-15.371,39.924c0,33.074,26.812,59.886,59.886,59.886l0,0h159.695v-29.943    C342.778,464.115,329.372,450.709,329.372,434.172L329.372,434.172z M239.543,464.115c-16.537,0-29.943-13.406-29.943-29.943    c0-16.537,13.406-29.943,29.943-29.943s29.943,13.406,29.943,29.943C269.486,450.709,256.08,464.115,239.543,464.115    L239.543,464.115z"/>
		<rect x="359.315" y="334.362" style="fill:#EFCC33;" width="149.714" height="39.924"/>
		<polygon style="fill:#EBBF00;" points="309.41,334.362 189.638,334.362 189.638,354.324 189.638,374.286 199.619,374.286     359.315,374.286 359.315,334.362   "/>
		<polygon style="fill:#FFD733;" points="378.558,84.838 359.315,104.281 359.315,161.033 395.216,124.762 469.105,124.762     469.105,234.553 359.315,234.553 359.315,334.362 509.029,334.362 509.029,84.838   "/>
		<polygon style="fill:#FFCD00;" points="359.315,234.553 349.334,234.553 349.334,171.124 359.315,161.033 359.315,104.281     309.41,154.705 309.41,214.591 309.41,334.362 359.315,334.362   "/>
		<path style="fill:#898890;" d="M279.467,254.514h-59.886c-5.512,0-9.981-4.469-9.981-9.981s4.469-9.981,9.981-9.981h59.886    c5.512,0,9.981,4.469,9.981,9.981S284.979,254.514,279.467,254.514z"/>
		<path style="fill:#898890;" d="M279.467,284.457h-59.886c-5.512,0-9.981-4.469-9.981-9.981s4.469-9.981,9.981-9.981h59.886    c5.512,0,9.981,4.469,9.981,9.981S284.979,284.457,279.467,284.457z"/>
	</g>
</g>















</svg>
