<?xml version="1.0" encoding="iso-8859-1"?>
<!-- Generator: Adobe Illustrator 19.0.0, SVG Export Plug-In . SVG Version: 6.00 Build 0)  -->
<svg version="1.1" id="Capa_1" xmlns="http://www.w3.org/2000/svg" xmlns:xlink="http://www.w3.org/1999/xlink" x="0px" y="0px"
	 viewBox="0 0 488 488" style="enable-background:new 0 0 488 488;" xml:space="preserve">
<polyline style="fill:#7D828C;" points="352,84 352,52 384,52 384,84 "/>
<path style="fill:#5C6373;" d="M328,116v-16c0-8.8,7.2-16,16-16h48c8.8,0,16,7.2,16,16v16"/>
<g>
	<polyline style="fill:#7D828C;" points="400,292 400,260 240,260 240,292 	"/>
	<polygon style="fill:#7D828C;" points="440,356 440,324 0,324 0,388 144,388 144,356 	"/>
</g>
<rect x="224" y="356" style="fill:#A6A6A6;" width="208" height="32"/>
<rect x="128" y="292" style="fill:#5C6373;" width="352" height="32"/>
<path style="fill:#A6A6A6;" d="M232,116h176c40,0,72,32,72,72l0,0c0,40-32,72-72,72H232c-40,0-72-32-72-72l0,0
	C160,148,192,116,232,116z"/>
<g>
	<rect x="248" y="68" style="fill:#5C6373;" width="16" height="176"/>
	<rect x="216" y="68" style="fill:#5C6373;" width="16" height="176"/>
	<rect x="224" y="148" style="fill:#5C6373;" width="32" height="16"/>
	<rect x="224" y="116" style="fill:#5C6373;" width="32" height="16"/>
	<rect x="224" y="180" style="fill:#5C6373;" width="32" height="16"/>
	<rect x="224" y="84" style="fill:#5C6373;" width="32" height="16"/>
	<rect x="224" y="212" style="fill:#5C6373;" width="32" height="16"/>
</g>
<circle style="fill:#7D828C;" cx="440" cy="388" r="40"/>
<path style="fill:#313740;" d="M440,436c-26.4,0-48-21.6-48-48s21.6-48,48-48s48,21.6,48,48S466.4,436,440,436z M440,356
	c-17.6,0-32,14.4-32,32s14.4,32,32,32s32-14.4,32-32S457.6,356,440,356z"/>
<circle style="fill:#7D828C;" cx="312" cy="388" r="40"/>
<path style="fill:#313740;" d="M312,436c-26.4,0-48-21.6-48-48s21.6-48,48-48s48,21.6,48,48S338.4,436,312,436z M312,356
	c-17.6,0-32,14.4-32,32s14.4,32,32,32s32-14.4,32-32S329.6,356,312,356z"/>
<circle style="fill:#7D828C;" cx="72" cy="388" r="40"/>
<path style="fill:#313740;" d="M72,436c-26.4,0-48-21.6-48-48s21.6-48,48-48s48,21.6,48,48S98.4,436,72,436z M72,356
	c-17.6,0-32,14.4-32,32s14.4,32,32,32s32-14.4,32-32S89.6,356,72,356z"/>
<polygon style="fill:#5C6373;" points="224,356 144,356 144,420 240,420 240,388 224,388 "/>
<rect x="72" y="268" style="fill:#A6A6A6;" width="32" height="16"/>
<path style="fill:#BF7D2C;" d="M404,187.2c5.6,7.2,5.6,17.6,0.8,24.8c-10.4,16-32,20-48,9.6c-4-2.4-7.2-5.6-9.6-9.6
	c-4.8-8-4-17.6,0.8-24.8l28-39.2L404,187.2z"/>
<path style="fill:#9F3A37;" d="M128,324H0v-95.2c0-21.6,8.8-41.6,23.2-56.8L40,155.2C55.2,140,75.2,132,96.8,132H128V324z"/>
<path style="fill:#A6A6A6;" d="M0,244h96V132c-20.8,0-40.8,8.8-55.2,23.2L24,172C8.8,187.2,0,208,0,228.8V244z"/>
<g>
</g>
<g>
</g>
<g>
</g>
<g>
</g>
<g>
</g>
<g>
</g>
<g>
</g>
<g>
</g>
<g>
</g>
<g>
</g>
<g>
</g>
<g>
</g>
<g>
</g>
<g>
</g>
<g>
</g>
</svg>
