<svg height="512pt" viewBox="-4 0 512 512.00002" width="512pt" xmlns="http://www.w3.org/2000/svg"><path d="m9.484375 286.371094c-4.792969.007812-8.683594-3.871094-8.6875-8.664063-.003906-2.824219 1.363281-5.472656 3.671875-7.101562l242.183594-173.558594c3.007812-2.128906 7.027344-2.128906 10.035156 0l241.046875 173.558594c3.96875 2.683593 5.011719 8.078125 2.324219 12.050781-2.683594 3.96875-8.078125 5.011719-12.046875 2.324219-.113281-.074219-.21875-.152344-.328125-.230469l-236.023438-169.984375-237.175781 170.019531c-1.464844 1.03125-3.207031 1.585938-5 1.585938zm0 0" fill="#57565c"/><path d="m18.152344 269.015625h-18.152344v242.984375h251.660156v-242.984375zm0 0" fill="#cd2a00"/><path d="m503.320312 269.015625h-251.660156v242.984375h251.660156zm0 0" fill="#d75533"/><path d="m251.660156 112.8125c-19.167968 0-34.710937-15.539062-34.710937-34.710938 0-4.792968 3.886719-8.679687 8.679687-8.679687 4.789063 0 8.675782 3.886719 8.675782 8.679687 0 9.585938 7.769531 17.355469 17.355468 17.355469 9.585938 0 17.355469-7.769531 17.355469-17.355469 0-9.585937-7.769531-17.355468-17.355469-17.355468-4.792968 0-8.675781-3.886719-8.675781-8.679688v-43.386718c0-4.792969 3.882813-8.679688 8.675781-8.679688 4.792969 0 8.679688 3.886719 8.679688 8.679688v35.804687c18.566406 4.773437 29.746094 23.695313 24.972656 42.261719-3.945312 15.355468-17.796875 26.082031-33.652344 26.066406zm0 0" fill="#57565c"/><path d="m312.40625 17.355469h-121.492188c-4.792968 0-8.675781-3.886719-8.675781-8.675781 0-4.792969 3.882813-8.679688 8.675781-8.679688h121.492188c4.792969 0 8.679688 3.886719 8.679688 8.679688 0 4.789062-3.886719 8.675781-8.679688 8.675781zm0 0" fill="#57565c"/><g fill="#e0e0e2"><path d="m286.371094 485.964844c-4.789063 0-8.675782-3.882813-8.675782-8.675782v-173.558593c0-4.792969 3.886719-8.679688 8.675782-8.679688 4.792968 0 8.679687 3.886719 8.679687 8.679688v173.558593c0 4.792969-3.886719 8.675782-8.679687 8.675782zm0 0"/><path d="m355.796875 485.964844c-4.792969 0-8.679687-3.882813-8.679687-8.675782v-173.558593c0-4.792969 3.886718-8.679688 8.679687-8.679688s8.675781 3.886719 8.675781 8.679688v173.558593c0 4.792969-3.882812 8.675782-8.675781 8.675782zm0 0"/><path d="m425.21875 485.964844c-4.789062 0-8.675781-3.882813-8.675781-8.675782v-173.558593c0-4.792969 3.886719-8.679688 8.675781-8.679688 4.792969 0 8.679688 3.886719 8.679688 8.679688v173.558593c0 4.792969-3.886719 8.675782-8.679688 8.675782zm0 0"/><path d="m78.101562 485.964844c-4.792968 0-8.679687-3.882813-8.679687-8.675782v-173.558593c0-4.792969 3.886719-8.679688 8.679687-8.679688 4.792969 0 8.679688 3.886719 8.679688 8.679688v173.558593c0 4.792969-3.886719 8.675782-8.679688 8.675782zm0 0"/><path d="m147.527344 485.964844c-4.792969 0-8.679688-3.882813-8.679688-8.675782v-173.558593c0-4.792969 3.886719-8.679688 8.679688-8.679688 4.789062 0 8.675781 3.886719 8.675781 8.679688v173.558593c0 4.792969-3.886719 8.675782-8.675781 8.675782zm0 0"/><path d="m216.949219 485.964844c-4.792969 0-8.679688-3.882813-8.679688-8.675782v-173.558593c0-4.792969 3.886719-8.679688 8.679688-8.679688s8.679687 3.886719 8.679687 8.679688v173.558593c0 4.792969-3.886718 8.675782-8.679687 8.675782zm0 0"/></g></svg>