<?xml version='1.0' encoding='iso-8859-1'?>
<!DOCTYPE svg PUBLIC '-//W3C//DTD SVG 1.1//EN' 'http://www.w3.org/Graphics/SVG/1.1/DTD/svg11.dtd'>
<svg version="1.1" xmlns="http://www.w3.org/2000/svg" viewBox="0 0 448.479 448.479" xmlns:xlink="http://www.w3.org/1999/xlink" enable-background="new 0 0 448.479 448.479">
  <g>
    <path d="m440.979,139.493h-433.479c-4.142,0-7.5,3.358-7.5,7.5v128.994c0,4.142 3.358,7.5 7.5,7.5h17.999v17.999c0,4.142 3.358,7.5 7.5,7.5h73.497c4.142,0 7.5-3.358 7.5-7.5v-17.999h220.488v17.999c0,4.142 3.357,7.5 7.5,7.5h73.496c4.143,0 7.5-3.358 7.5-7.5v-17.999h17.999c4.143,0 7.5-3.358 7.5-7.5v-128.994c0-4.142-3.358-7.5-7.5-7.5zm-341.984,154.492h-58.496v-10.499h58.497v10.499zm308.983,0h-58.496v-10.499h58.496v10.499zm25.5-25.498h-418.479v-113.994h418.479v113.994z"/>
    <path d="m27.5,260.987h393.478c2.762,0 5-2.239 5-5v-88.994c0-2.761-2.238-5-5-5h-393.478c-2.761,0-5,2.239-5,5v88.994c0,2.761 2.238,5 5,5zm5-88.994h383.478v78.994h-383.478v-78.994z"/>
    <path d="m380.978,194.494h-165.416c-2.761,0-5,2.239-5,5v23.993c0,2.761 2.239,5 5,5h165.416c2.762,0 5-2.239 5-5v-23.993c0-2.762-2.239-5-5-5zm-5,23.992h-155.416v-13.993h155.416v13.993z"/>
    <path d="m76.497,177.991c-18.471,0-33.499,15.027-33.499,33.499s15.027,33.499 33.499,33.499 33.499-15.028 33.499-33.499-15.028-33.499-33.499-33.499zm0,56.998c-12.957,0-23.499-10.542-23.499-23.499 0-12.957 10.542-23.499 23.499-23.499s23.499,10.542 23.499,23.499c-0.001,12.957-10.542,23.499-23.499,23.499z"/>
    <path d="m135.532,206.488c-1.32,0-2.61,0.53-3.54,1.47-0.93,0.93-1.46,2.21-1.46,3.53 0,1.32 0.53,2.61 1.46,3.54 0.93,0.93 2.22,1.46 3.54,1.46 1.32,0 2.6-0.53 3.53-1.46 0.93-0.93 1.47-2.22 1.47-3.54 0-1.31-0.54-2.6-1.47-3.53-0.93-0.94-2.22-1.47-3.53-1.47z"/>
    <path d="m160.282,206.488c-1.32,0-2.61,0.53-3.54,1.47-0.93,0.92-1.46,2.21-1.46,3.53 0,1.32 0.53,2.61 1.46,3.54 0.93,0.93 2.22,1.46 3.54,1.46 1.31,0 2.6-0.53 3.53-1.46 0.93-0.93 1.47-2.22 1.47-3.54 0-1.32-0.54-2.6-1.47-3.53-0.93-0.94-2.22-1.47-3.53-1.47z"/>
    <path d="m185.032,206.488c-1.32,0-2.61,0.53-3.54,1.47-0.93,0.93-1.47,2.22-1.47,3.53 0,1.32 0.54,2.61 1.47,3.54 0.93,0.93 2.22,1.46 3.54,1.46 1.31,0 2.6-0.53 3.53-1.46 0.93-0.93 1.47-2.22 1.47-3.54 0-1.31-0.54-2.6-1.47-3.53-0.93-0.94-2.22-1.47-3.53-1.47z"/>
    <path d="m76.492,191.488c-1.31,0-2.6,0.54-3.53,1.47-0.93,0.93-1.47,2.22-1.47,3.53 0,1.32 0.54,2.61 1.47,3.54 0.93,0.93 2.22,1.46 3.53,1.46 1.32,0 2.61-0.53 3.54-1.46 0.93-0.93 1.46-2.22 1.46-3.54 0-1.31-0.53-2.6-1.46-3.53-0.93-0.93-2.22-1.47-3.54-1.47z"/>
  </g>
</svg>
