<svg height="512pt" viewBox="-44 0 512 512.00002" width="512pt" xmlns="http://www.w3.org/2000/svg"><path d="m264.824219 344.269531h61.792969c54.097656.753907 97.527343 44.878907 97.425781 98.984375l-.324219 68.738282h-423.71875l.335938-70.503907c.074218-53.765625 43.714843-97.289062 97.480468-97.21875h.027344l70.617188.292969zm0 0" fill="#5e8569"/><path d="m203.03125 467.855469h17.65625v17.652343h-17.65625zm0 0"/><path d="m203.03125 432.542969h17.65625v17.65625h-17.65625zm0 0"/><path d="m0 476.679688h79.445312v35.3125h-79.445312zm0 0" fill="#fdc9a6"/><path d="m353.097656 475.800781h70.980469v36.191407h-70.980469zm0 0" fill="#fdc9a6"/><path d="m158.894531 344.269531h105.929688v167.722657h-105.929688zm0 0" fill="#f7ba61"/><path d="m211.859375 379.578125c-19.5 0-35.308594-15.808594-35.308594-35.308594v-52.964843h70.617188v52.964843c0 19.5-15.808594 35.308594-35.308594 35.308594zm0 0" fill="#fdc9a6"/><path d="m176.546875 319.765625c11.351563 4.515625 23.457031 6.839844 35.671875 6.851563 11.957031-.019532 23.808594-2.25 34.949219-6.585938v-36.671875h-70.621094zm0 0" fill="#f6bb92"/><path d="m308.960938 105.929688c-2.382813-5.394532-35.308594-11.359376-35.308594-17.65625 0-.148438.042968-.289063.042968-.441407-21.761718-2.335937-37.503906-21.871093-35.167968-43.632812.214844-1.980469.578125-3.945313 1.085937-5.871094 3.554688-13.863281 14.382813-24.691406 28.246094-28.246094 21.164063-5.570312 42.835937 7.070313 48.40625 28.234375.507813 1.925782.867187 3.886719 1.082031 5.863282.148438 0 .289063-.042969.441406-.042969 24.234376-.140625 43.992188 19.390625 44.132813 43.625.035156 5.550781-.988281 11.054687-3.007813 16.226562 20.554688 12.800781 26.839844 39.84375 14.035157 60.398438-2.066407 3.316406-4.570313 6.347656-7.441407 9 21.300782 11.621093 29.152344 38.308593 17.53125 59.609375-4.703124 8.625-12.164062 15.421875-21.183593 19.308594-.394531 21.628906-18.023438 38.964843-39.652344 39-.742187 0-1.441406-.175782-2.171875-.21875-12.074219 18.316406-36.714844 23.375-55.03125 11.300781-.058594-.039063-.117188-.078125-.175781-.117188-.300781-.195312-1.871094-1.167969-3.972657-2.453125-6.476562-3.972656-8.507812-12.4375-4.539062-18.914062.378906-.621094.808594-1.210938 1.28125-1.761719l42.539062-49.628906zm0 0" fill="#a8a8a8"/><path d="m114.757812 105.929688c2.382813-5.394532 35.308594-11.359376 35.308594-17.65625 0-.148438 0-.289063 0-.441407 21.761719-2.335937 37.503906-21.871093 35.167969-43.632812-.214844-1.980469-.578125-3.945313-1.085937-5.871094-3.554688-13.863281-14.382813-24.691406-28.246094-28.246094-21.160156-5.59375-42.84375 7.023438-48.4375 28.179688-.515625 1.941406-.878906 3.921875-1.09375 5.917969-.148438 0-.292969-.042969-.441406-.042969-24.234376-.140625-43.996094 19.390625-44.136719 43.625-.03125 5.550781.988281 11.058593 3.007812 16.226562-20.550781 12.800781-26.835937 39.84375-14.03125 60.398438 2.066407 3.320312 4.570313 6.347656 7.4375 9.003906-21.300781 11.617187-29.148437 38.304687-17.527343 59.605469 4.703124 8.625 12.164062 15.421875 21.183593 19.308594.394531 21.628906 18.019531 38.964843 39.652344 39 .742187 0 1.4375-.175782 2.171875-.21875 7.332031 11.15625 19.789062 17.875 33.136719 17.875 7.960937.855468 15.925781-1.5625 22.070312-6.691407 1.292969-1.378906 2.515625-2.824219 3.652344-4.335937 3.160156-3.96875 3.574219-9.460938 1.042969-13.859375l-31.179688-54.5625-17.652344-88.273438zm0 0" fill="#a8a8a8"/><path d="m326.976562 228.628906h-17.652343l-9.191407.882813v-44.136719l9.191407-.882812h17.652343c9.75 0 17.65625 7.90625 17.65625 17.65625v8.828124c0 9.75-7.90625 17.652344-17.65625 17.652344zm0 0" fill="#f6bb92"/><path d="m97.464844 228.628906h17.652344l8.46875.882813v-44.136719l-8.46875-.882812h-17.652344c-9.75 0-17.65625 7.90625-17.65625 17.65625v8.828124c0 9.75 7.90625 17.652344 17.65625 17.652344zm0 0" fill="#f6bb92"/><path d="m309.324219 79.445312v131.53125c0 53.628907-43.476563 97.101563-97.105469 97.101563-53.625 0-97.101562-43.472656-97.101562-97.101563v-131.53125zm0 0" fill="#fdc9a6"/><path d="m168.082031 210.976562c-4.875 0-8.828125-3.953124-8.828125-8.828124v-8.828126c0-4.875 3.953125-8.828124 8.828125-8.828124s8.828125 3.953124 8.828125 8.828124v8.828126c0 4.875-3.953125 8.828124-8.828125 8.828124zm0 0" fill="#834b10"/><path d="m256.359375 210.976562c-4.875 0-8.828125-3.953124-8.828125-8.828124v-8.828126c0-4.875 3.953125-8.828124 8.828125-8.828124s8.828125 3.953124 8.828125 8.828124v8.828126c-.003906 4.875-3.953125 8.828124-8.828125 8.828124zm0 0" fill="#834b10"/><path d="m220.6875 229.511719h-8.828125c-4.875 0-8.828125-3.949219-8.828125-8.824219v-17.65625c0-4.875 3.953125-8.828125 8.828125-8.828125s8.828125 3.953125 8.828125 8.828125v8.828125c4.875 0 8.824219 3.953125 8.824219 8.828125s-3.949219 8.824219-8.824219 8.824219zm0 0" fill="#834b10"/><path d="m238.339844 26.484375c0 14.625-11.855469 26.480469-26.480469 26.480469s-26.484375-11.855469-26.484375-26.480469c0-14.628906 11.859375-26.484375 26.484375-26.484375s26.480469 11.855469 26.480469 26.484375zm0 0" fill="#a8a8a8"/><g fill="#f6bb92"><path d="m229.511719 176.546875h-35.308594c-4.875 0-8.828125-3.949219-8.828125-8.824219s3.953125-8.828125 8.828125-8.828125h35.308594c4.878906 0 8.828125 3.953125 8.828125 8.828125s-3.949219 8.824219-8.828125 8.824219zm0 0"/><path d="m229.511719 141.238281h-35.308594c-4.875 0-8.828125-3.953125-8.828125-8.828125s3.953125-8.828125 8.828125-8.828125h35.308594c4.878906 0 8.828125 3.953125 8.828125 8.828125s-3.949219 8.828125-8.828125 8.828125zm0 0"/><path d="m158.894531 264.824219c-4.875 0-8.828125-3.953125-8.828125-8.828125v-12.199219l-12.773437-6.339844c-4.363281-2.179687-6.132813-7.480469-3.953125-11.84375 2.175781-4.367187 7.480468-6.136719 11.84375-3.957031l17.65625 8.828125c2.980468 1.488281 4.867187 4.527344 4.882812 7.855469v17.65625c0 4.875-3.953125 8.828125-8.828125 8.828125zm0 0"/><path d="m264.824219 264.824219c-4.875 0-8.828125-3.953125-8.828125-8.828125v-17.65625c-.003906-3.34375 1.886718-6.402344 4.882812-7.898438l17.652344-8.828125c4.363281-2.179687 9.667969-.410156 11.847656 3.953125 2.179688 4.363282.410156 9.667969-3.953125 11.847656l-12.773437 6.382813v12.199219c0 4.875-3.953125 8.828125-8.828125 8.828125zm0 0"/></g><path d="m211.859375 260.144531c-7.496094.003907-14.890625-1.734375-21.601563-5.074219-4.363281-2.179687-6.132812-7.484374-3.953124-11.847656 2.179687-4.363281 7.480468-6.132812 11.84375-3.953125 8.636718 4.296875 18.785156 4.296875 27.417968 0 4.363282-2.179687 9.667969-.410156 11.847656 3.953125 2.179688 4.363282.410157 9.667969-3.953124 11.847656-6.710938 3.339844-14.105469 5.078126-21.601563 5.074219zm0 0" fill="#834b10"/><path d="m150.066406 44.136719h97.101563v44.136719h-97.101563zm0 0" fill="#a8a8a8"/><path d="m203.03125 35.308594c0 14.625-11.855469 26.484375-26.484375 26.484375-14.625 0-26.480469-11.859375-26.480469-26.484375s11.855469-26.480469 26.480469-26.480469c14.628906 0 26.484375 11.855469 26.484375 26.480469zm0 0" fill="#a8a8a8"/><path d="m273.652344 35.308594c0 14.625-11.859375 26.484375-26.484375 26.484375s-26.480469-11.859375-26.480469-26.484375 11.855469-26.480469 26.480469-26.480469 26.484375 11.855469 26.484375 26.480469zm0 0" fill="#a8a8a8"/><path d="m115.117188 70.621094h194.207031l17.292969 79.445312h-17.292969l-97.464844-61.792968-96.742187 61.792968h-9.1875zm0 0" fill="#a8a8a8"/><path d="m96.21875 507.164062-1.863281-3.726562c-8.648438-17.40625-8.648438-37.859375 0-55.269531l1.863281-3.734375c.597656-1.226563.898438-2.578125.882812-3.945313v-26.480469c0-4.875-3.953124-8.828124-8.828124-8.828124s-8.828126 3.953124-8.828126 8.828124v24.40625l-.925781 1.863282c-11.121093 22.382812-11.121093 48.679687 0 71.0625l.328125.652344h18.050782c.242187-1.640626.007812-3.320313-.679688-4.828126zm0 0" fill="#55785f"/><path d="m353.980469 511.160156c10.476562-22.402344 10.476562-48.300781 0-70.707031l-.882813-1.871094.433594-24.417969c.085938-4.875-3.800781-8.894531-8.675781-8.980468-4.875-.085938-8.894531 3.796875-8.980469 8.671875l-.46875 26.484375c-.015625 1.359375.289062 2.703125.882812 3.925781l1.765626 3.734375c8.238281 17.625 8.238281 37.992188 0 55.613281l-1.765626 3.726563c-.652343 1.460937-.882812 3.074218-.660156 4.660156h17.996094zm0 0" fill="#55785f"/></svg>