<?xml version="1.0" encoding="iso-8859-1"?>
<!-- Generator: Adobe Illustrator 19.0.0, SVG Export Plug-In . SVG Version: 6.00 Build 0)  -->
<svg version="1.1" id="Capa_1" xmlns="http://www.w3.org/2000/svg" xmlns:xlink="http://www.w3.org/1999/xlink" x="0px" y="0px"
	 viewBox="0 0 512 512" style="enable-background:new 0 0 512 512;" xml:space="preserve">
<path style="fill:#F3705B;" d="M506.667,227.733l-46.933-106.667c-4.267-9.6-13.867-14.933-23.467-14.933H322.133
	c-11.733,0-21.333,9.6-21.333,21.333v221.867h196.267c8.533,0,14.933-6.4,14.933-14.933v-78.933
	C512,245.867,509.867,236.267,506.667,227.733z"/>
<path style="fill:#435B6C;" d="M476.8,230.933l-40.533-92.8c-1.067-3.2-4.267-4.267-7.467-4.267H336c-4.267,0-7.467,3.2-7.467,7.467
	v72.533c0,4.267,3.2,7.467,7.467,7.467h37.333c4.267,0,7.467,3.2,7.467,7.467v5.333c0,4.267,3.2,7.467,7.467,7.467h81.067
	C475.733,241.6,478.933,236.267,476.8,230.933z"/>
<path style="fill:#F15741;" d="M13.867,234.133C6.4,234.133,0,240.533,0,248v87.467c0,7.467,6.4,13.867,13.867,13.867H300.8v-115.2
	H13.867z"/>
<path style="fill:#354B5E;" d="M119.467,269.333c-43.733,0-80,36.267-80,80h160C199.467,304.533,163.2,269.333,119.467,269.333z"/>
<circle style="fill:#435B6C;" cx="119.467" cy="349.333" r="56.533"/>
<circle style="fill:#F3F3F3;" cx="119.467" cy="349.333" r="23.467"/>
<path style="fill:#354B5E;" d="M408.533,269.333c-43.733,0-80,36.267-80,80h160C488.533,304.533,452.267,269.333,408.533,269.333z"
	/>
<circle style="fill:#435B6C;" cx="408.533" cy="349.333" r="56.533"/>
<circle style="fill:#F3F3F3;" cx="408.533" cy="349.333" r="23.467"/>
<g>
</g>
<g>
</g>
<g>
</g>
<g>
</g>
<g>
</g>
<g>
</g>
<g>
</g>
<g>
</g>
<g>
</g>
<g>
</g>
<g>
</g>
<g>
</g>
<g>
</g>
<g>
</g>
<g>
</g>
</svg>
