<?xml version="1.0" encoding="iso-8859-1"?>
<!-- Generator: Adobe Illustrator 19.0.0, SVG Export Plug-In . SVG Version: 6.00 Build 0)  -->
<svg version="1.1" id="Layer_1" xmlns="http://www.w3.org/2000/svg" xmlns:xlink="http://www.w3.org/1999/xlink" x="0px" y="0px"
	 viewBox="0 0 512 512" style="enable-background:new 0 0 512 512;" xml:space="preserve">
<path style="fill:#797781;" d="M456.997,291.694c-4.848,0-8.777-3.929-8.777-8.777c0-117.211-28.886-179.639-49.737-179.639H251.026
	c-6.006,0-16.084,9.754-24.727,37.244c-8.582,27.296-13.307,64.15-13.307,103.775c0,4.849-3.929,8.777-8.777,8.777
	c-4.849,0-8.777-3.929-8.777-8.777c0-78.801,19.093-158.574,55.589-158.574h147.456c14.132,0,34.234,10.259,49.742,59.126
	c11.318,35.663,17.55,84.697,17.55,138.067C465.774,287.765,461.845,291.694,456.997,291.694z"/>
<path style="fill:#EDEDED;" d="M256.293,263.022c-2.246,0-4.493-0.857-6.207-2.57c-3.428-3.429-3.428-8.985,0-12.413l58.514-58.514
	c3.429-3.427,8.985-3.427,12.413,0c3.428,3.429,3.428,8.985,0,12.413l-58.514,58.514
	C260.785,262.165,258.538,263.022,256.293,263.022z"/>
<g>
	<path style="fill:#88888F;" d="M348.16,217.966c-2.246,0-4.493-0.857-6.207-2.57l-46.811-46.811c-3.428-3.429-3.428-8.985,0-12.413
		c3.429-3.427,8.985-3.427,12.413,0l46.811,46.811c3.428,3.429,3.428,8.985,0,12.413
		C352.653,217.109,350.406,217.966,348.16,217.966z"/>
	<rect x="348.16" y="256" style="fill:#88888F;" width="70.217" height="58.514"/>
</g>
<g>
	<rect x="383.269" y="256" style="fill:#797781;" width="35.109" height="58.514"/>
	<path style="fill:#797781;" d="M336.457,250.149c0,9.695,7.86,17.554,17.554,17.554h58.514c9.695,0,17.554-7.86,17.554-17.554l0,0
		c0-9.695-7.86-17.554-17.554-17.554h-58.514C344.317,232.594,336.457,240.454,336.457,250.149L336.457,250.149z"/>
	<path style="fill:#797781;" d="M406.674,179.931c0-9.695,7.86-17.554,17.554-17.554l0,0c9.695,0,17.554,7.86,17.554,17.554v46.811
		c0,9.695-7.86,17.554-17.554,17.554l0,0c-9.695,0-17.554-7.86-17.554-17.554V179.931z"/>
</g>
<path style="fill:#58575D;" d="M424.229,162.377c-3.201,0-6.193,0.871-8.777,2.367c5.242,3.037,8.777,8.693,8.777,15.187v46.811
	c0,6.494-3.535,12.15-8.777,15.187c2.584,1.497,5.576,2.367,8.777,2.367c9.695,0,17.554-7.86,17.554-17.554v-46.811
	C441.783,170.237,433.923,162.377,424.229,162.377z"/>
<polygon style="fill:#88888F;" points="196.023,244.297 196.023,408.137 254.537,408.137 301.349,396.434 301.349,244.297 "/>
<polygon style="fill:#797781;" points="266.24,244.297 266.24,396.434 219.429,408.137 254.537,408.137 301.349,396.434 
	301.349,244.297 "/>
<rect x="394.971" y="326.217" style="fill:#58575D;" width="70.217" height="81.92"/>
<rect x="114.103" y="115.566" style="fill:#797781;" width="46.811" height="304.274"/>
<rect x="137.509" y="115.566" style="fill:#58575D;" width="23.406" height="304.274"/>
<rect x="90.697" y="279.406" style="fill:#D8D8DA;" width="23.406" height="140.434"/>
<path style="fill:#EDEDED;" d="M90.697,419.84H8.777c-4.848,0-8.777-3.929-8.777-8.777s3.929-8.777,8.777-8.777h81.92
	c4.848,0,8.777,3.929,8.777,8.777S95.546,419.84,90.697,419.84z"/>
<circle style="fill:#88888F;" cx="459.337" cy="390.583" r="52.663"/>
<path style="fill:#EDEDED;" d="M459.337,405.211c-8.067,0-14.629-6.562-14.629-14.629c0-8.067,6.562-14.629,14.629-14.629
	c8.067,0,14.629,6.562,14.629,14.629C473.966,398.65,467.404,405.211,459.337,405.211z"/>
<circle style="fill:#88888F;" cx="201.874" cy="390.583" r="52.663"/>
<g>
	<path style="fill:#797781;" d="M201.874,337.92c-6.157,0-12.062,1.067-17.554,3.009c20.452,7.23,35.109,26.726,35.109,49.654
		c0,22.928-14.657,42.424-35.109,49.654c5.492,1.941,11.397,3.009,17.554,3.009c29.085,0,52.663-23.578,52.663-52.663
		C254.537,361.498,230.959,337.92,201.874,337.92z"/>
	<path style="fill:#797781;" d="M459.337,337.92c-6.157,0-12.062,1.067-17.554,3.009c20.452,7.23,35.109,26.726,35.109,49.654
		c0,22.928-14.657,42.424-35.109,49.654c5.492,1.941,11.397,3.009,17.554,3.009c29.085,0,52.663-23.578,52.663-52.663
		C512,361.498,488.422,337.92,459.337,337.92z"/>
</g>
<path style="fill:#EDEDED;" d="M201.874,405.211c-8.067,0-14.629-6.562-14.629-14.629c0-8.067,6.562-14.629,14.629-14.629
	s14.629,6.562,14.629,14.629C216.503,398.65,209.941,405.211,201.874,405.211z"/>
<polygon style="fill:#98C8ED;" points="465.189,337.92 406.674,337.92 406.674,408.137 254.537,408.137 254.537,326.217 
	465.189,279.406 "/>
<g>
	<rect x="371.566" y="337.92" style="fill:#7AB9E8;" width="35.109" height="70.217"/>
	<polygon style="fill:#7AB9E8;" points="430.08,287.208 430.08,337.92 465.189,337.92 465.189,279.406 	"/>
</g>
<path style="fill:#98C8ED;" d="M242.834,68.754h198.949v35.109H207.726C207.726,84.474,223.445,68.754,242.834,68.754z"/>
<path style="fill:#58575D;" d="M412.526,232.594h-35.109c9.695,0,17.554,7.86,17.554,17.554c0,9.695-7.86,17.554-17.554,17.554
	h35.109c9.695,0,17.554-7.86,17.554-17.554C430.08,240.454,422.22,232.594,412.526,232.594z"/>
<rect x="406.674" y="68.754" style="fill:#7AB9E8;" width="35.109" height="35.109"/>
<g>
</g>
<g>
</g>
<g>
</g>
<g>
</g>
<g>
</g>
<g>
</g>
<g>
</g>
<g>
</g>
<g>
</g>
<g>
</g>
<g>
</g>
<g>
</g>
<g>
</g>
<g>
</g>
<g>
</g>
</svg>
