<?xml version="1.0" encoding="iso-8859-1"?>
<!-- Generator: Adobe Illustrator 19.0.0, SVG Export Plug-In . SVG Version: 6.00 Build 0)  -->
<svg version="1.1" id="Layer_1" xmlns="http://www.w3.org/2000/svg" xmlns:xlink="http://www.w3.org/1999/xlink" x="0px" y="0px"
	 viewBox="0 0 512.001 512.001" style="enable-background:new 0 0 512.001 512.001;" xml:space="preserve">
<path style="fill:#EA8500;" d="M313.739,321.761V189.889c0-2.541,2.06-4.601,4.601-4.601h18.145v136.474h-22.746V321.761z"/>
<path style="fill:#FFCC5A;" d="M31.105,146.191l-14.771,42.905c-2.521,7.323-1.628,15.269,2.376,21.132l21.51,31.495
	c46.555,68.169,127.464,96.024,206.117,70.96l36.339-11.58c6.764-2.155,12.359-7.868,14.88-15.191l14.771-42.905
	c2.521-7.323,1.628-15.27-2.375-21.132l-21.51-31.495c-46.555-68.169-127.464-96.024-206.117-70.96L45.986,131
	C39.222,133.156,33.627,138.868,31.105,146.191z"/>
<path style="fill:#FFB000;" d="M309.952,221.876l-12.038-17.626l-22.208,59.812c-2.521,7.323-8.117,13.036-14.88,15.191
	l-36.339,11.58c-61.847,19.708-125.085,6.69-171.922-32.914c47.691,56.244,121.677,77.739,193.773,54.765l36.339-11.58
	c6.764-2.155,12.359-7.868,14.88-15.191l14.771-42.905C314.848,235.684,313.955,227.738,309.952,221.876z"/>
<path style="fill:#FFA227;" d="M488.935,330.51h-152.45V152.208c0-6.231,5.052-11.283,11.283-11.283h83.499
	c3.834,0,7.405,1.947,9.483,5.169l46.385,71.943c1.175,1.823,1.8,3.945,1.8,6.114L488.935,330.51L488.935,330.51z"/>
<path style="fill:#F78B0B;" d="M487.135,218.037l-46.385-71.943c-2.077-3.222-5.649-5.169-9.483-5.169H402.09
	c3.834,0,7.405,1.947,9.483,5.169l46.385,71.943c1.175,1.823,1.8,3.945,1.8,6.114V330.51h29.177V224.151
	C488.935,221.983,488.31,219.86,487.135,218.037z"/>
<path style="fill:#B3B3B3;" d="M19.033,350.398h473.935c6.487,0,11.746-5.259,11.746-11.746v-5.145
	c0-6.487-5.259-11.746-11.746-11.746H19.033c-6.487,0-11.746,5.259-11.746,11.746v5.145
	C7.287,345.139,12.545,350.398,19.033,350.398z"/>
<path style="fill:#AEFFFF;" d="M462.926,229.112L462.926,229.112c0-0.408-0.118-0.807-0.339-1.15l-38.688-60.006
	c-0.411-0.637-1.117-1.022-1.875-1.022h-57.299c-1.232,0-2.231,0.999-2.231,2.231v59.948c0,1.232,0.999,2.231,2.231,2.231h95.97
	C461.927,231.343,462.926,230.344,462.926,229.112z"/>
<path style="fill:#84F1F7;" d="M462.587,227.962l-38.689-60.006c-0.411-0.637-1.117-1.022-1.875-1.022h-33.776
	c0.758,0,1.464,0.385,1.875,1.022l41.381,63.387h29.192c1.232,0,2.231-0.999,2.231-2.231l0,0
	C462.926,228.704,462.808,228.305,462.587,227.962z"/>
<path style="fill:#EA8500;" d="M40.22,241.723L28.6,224.709v97.052h32.438v-54.494C53.526,259.517,46.553,250.996,40.22,241.723z"/>
<path style="fill:#FFA227;" d="M95.659,295.239c22.168,13.769,46.93,22.382,72.841,25.352l54.854-189.308
	c-22.832-12.263-48.041-19.321-74.193-20.689L95.659,295.239z"/>
<path style="fill:#F78B0B;" d="M98.321,286.049l-2.661,9.184c0.313,0.194,0.63,0.382,0.944,0.575
	c0.822,0.504,1.647,1.002,2.476,1.491c0.506,0.299,1.013,0.595,1.521,0.888c0.884,0.51,1.772,1.011,2.663,1.505
	c0.527,0.292,1.055,0.582,1.584,0.868c0.944,0.511,1.893,1.013,2.845,1.506c0.479,0.248,0.958,0.493,1.439,0.736
	c0.966,0.489,1.936,0.969,2.91,1.439c0.367,0.177,0.733,0.356,1.101,0.531c1.131,0.537,2.268,1.058,3.41,1.57
	c0.43,0.193,0.862,0.383,1.293,0.573c1.07,0.47,2.145,0.93,3.223,1.378c0.229,0.095,0.457,0.195,0.687,0.289
	c1.284,0.527,2.576,1.034,3.871,1.53c0.367,0.141,0.735,0.279,1.104,0.417c1.184,0.444,2.373,0.878,3.566,1.297
	c0.163,0.057,0.325,0.117,0.488,0.174c1.362,0.473,2.731,0.926,4.105,1.365c0.296,0.095,0.593,0.187,0.89,0.281
	c1.296,0.407,2.596,0.802,3.902,1.179c0.101,0.029,0.201,0.06,0.302,0.089c1.44,0.413,2.887,0.805,4.338,1.181
	c0.216,0.056,0.433,0.11,0.649,0.165c1.41,0.36,2.824,0.706,4.243,1.03c0.041,0.009,0.081,0.019,0.122,0.029
	c1.511,0.345,3.027,0.667,4.549,0.972c0.145,0.029,0.29,0.057,0.435,0.086c1.496,0.296,2.997,0.576,4.503,0.833
	c0.008,0.001,0.015,0.003,0.023,0.004c1.567,0.268,3.138,0.513,4.715,0.739c0.085,0.012,0.17,0.023,0.254,0.035
	c1.557,0.221,3.118,0.423,4.684,0.602l6.044-20.857C148.016,300.824,122.133,296.097,98.321,286.049z"/>
<path style="fill:#999999;" d="M492.968,321.761h-16.995v28.637h16.995c6.487,0,11.746-5.259,11.746-11.746v-5.145
	C504.713,327.02,499.455,321.761,492.968,321.761z"/>
<circle style="fill:#686868;" cx="412.29" cy="354.192" r="47.47"/>
<path style="fill:#4F4F4F;" d="M412.289,306.723c-4.935,0-9.693,0.754-14.167,2.152c19.296,6.026,33.302,24.036,33.302,45.317
	s-14.005,39.291-33.302,45.317c4.474,1.397,9.233,2.152,14.167,2.152c26.216,0,47.469-21.252,47.469-47.468
	C459.758,327.976,438.505,306.723,412.289,306.723z"/>
<circle style="fill:#B3B3B3;" cx="412.29" cy="354.192" r="19.78"/>
<circle style="fill:#686868;" cx="104.34" cy="354.192" r="47.47"/>
<path style="fill:#4F4F4F;" d="M104.339,306.723c-4.935,0-9.693,0.754-14.167,2.152c19.296,6.026,33.301,24.036,33.301,45.317
	s-14.005,39.291-33.301,45.317c4.474,1.397,9.233,2.152,14.167,2.152c26.216,0,47.469-21.252,47.469-47.468
	C151.808,327.976,130.555,306.723,104.339,306.723z"/>
<circle style="fill:#B3B3B3;" cx="104.34" cy="354.192" r="19.78"/>
<g>
	<path style="fill:#051C1B;" d="M470.213,229.113c0-1.81-0.518-3.571-1.501-5.1l-38.687-60.004c-1.76-2.731-4.751-4.362-8-4.362
		h-57.299c-5.248,0-9.517,4.269-9.517,9.518v59.948c0,5.248,4.269,9.517,9.517,9.517h95.97
		C465.943,238.63,470.213,234.36,470.213,229.113z M369.781,224.057V174.22h49.487l32.132,49.837H369.781z"/>
	<path style="fill:#051C1B;" d="M356.434,258.034v9.942c0,4.025,3.262,7.287,7.287,7.287c4.024,0,7.287-3.262,7.287-7.287v-9.942
		c0-4.025-3.262-7.287-7.287-7.287C359.696,250.747,356.434,254.009,356.434,258.034z"/>
	<path style="fill:#051C1B;" d="M412.289,327.126c-14.925,0-27.067,12.142-27.067,27.066s12.142,27.066,27.067,27.066
		s27.066-12.142,27.066-27.066S427.213,327.126,412.289,327.126z M412.289,366.686c-6.889,0-12.494-5.604-12.494-12.493
		S405.4,341.7,412.289,341.7c6.889,0,12.493,5.604,12.493,12.493C424.782,361.081,419.178,366.686,412.289,366.686z"/>
	<path style="fill:#051C1B;" d="M104.339,327.126c-14.925,0-27.066,12.142-27.066,27.066s12.142,27.066,27.066,27.066
		s27.067-12.142,27.067-27.066C131.406,339.268,119.264,327.126,104.339,327.126z M104.339,366.686
		c-6.889,0-12.493-5.604-12.493-12.493S97.45,341.7,104.339,341.7c6.889,0,12.494,5.604,12.494,12.493
		C116.833,361.081,111.228,366.686,104.339,366.686z"/>
	<path style="fill:#051C1B;" d="M496.222,314.774v-90.623c0-3.577-1.025-7.056-2.963-10.063l-46.384-71.942
		c-3.435-5.328-9.269-8.509-15.607-8.509h-33.342c-4.024,0-7.287,3.262-7.287,7.287c0,4.025,3.262,7.287,7.287,7.287h33.342
		c1.364,0,2.62,0.685,3.359,1.832l46.384,71.943c0.417,0.647,0.638,1.396,0.638,2.165v90.323H449.92
		c-9.82-9.308-23.065-15.037-37.631-15.037s-27.812,5.729-37.632,15.037h-30.885V185.287v-33.079c0-2.204,1.793-3.997,3.996-3.997
		h20.809c4.024,0,7.287-3.262,7.287-7.287c0-4.025-3.262-7.287-7.287-7.287h-20.809c-10.239,0-18.569,8.33-18.569,18.57v25.792
		H318.34c-6.555,0-11.888,5.333-11.888,11.888v13.944l-11.993-17.562c-31.095-45.532-77.225-74.324-129.149-81.455
		c-0.28-0.039-0.56-0.079-0.84-0.117c-1.359-0.18-2.723-0.343-4.089-0.493c-0.416-0.046-0.833-0.091-1.25-0.135
		c-1.287-0.133-2.577-0.254-3.87-0.36c-0.516-0.043-1.032-0.08-1.549-0.119c-1.216-0.09-2.434-0.174-3.656-0.241
		c-0.171-0.009-0.342-0.025-0.513-0.034c-0.097-0.005-0.192-0.002-0.288-0.003c-3.154-0.158-6.321-0.258-9.507-0.258
		c-19.951,0-40.015,3.17-59.634,9.422l-36.339,11.579c-8.971,2.858-16.282,10.246-19.558,19.762L9.445,186.724
		c-3.276,9.515-2.062,19.838,3.248,27.612l8.62,12.623v87.516h-2.281C8.538,314.475,0,323.013,0,333.507v5.144
		c0,10.495,8.538,19.033,19.033,19.033h30.674v-0.001c1.808,28.569,25.614,51.264,54.632,51.264
		c29.019,0,52.824-22.694,54.633-51.264v0.001h198.685v-0.001c1.808,28.569,25.614,51.264,54.633,51.264
		c29.018,0,52.824-22.694,54.632-51.264v0.001h26.046c10.495,0,19.033-8.538,19.033-19.033v-5.144
		C512,324.124,505.168,316.325,496.222,314.774z M68.325,284.188c7.222,6.237,14.841,11.87,22.804,16.87
		c-8.576,2.133-16.353,6.295-22.804,11.943V284.188z M313.739,329.048h22.746h27.187c-2.274,4.38-3.986,9.096-5.011,14.064H157.967
		c-1.025-4.967-2.737-9.684-5.011-14.064H313.739z M151.863,327.048c-0.009-0.015-0.018-0.031-0.026-0.046
		C151.845,327.018,151.854,327.033,151.863,327.048z M364.777,327.026c0.005-0.008,0.01-0.016,0.014-0.024
		c-0.009,0.015-0.017,0.03-0.026,0.045C364.77,327.041,364.773,327.034,364.777,327.026z M329.199,192.574v121.901h-8.173v-79.833
		c0-0.077,0.001-0.154,0-0.231v-41.837H329.199L329.199,192.574z M306.453,314.475H264.71l20.178-6.43
		c8.971-2.859,16.283-10.247,19.557-19.761l2.007-5.83v32.021H306.453z M282.425,194.489l21.509,31.496
		c2.685,3.932,3.26,9.545,1.503,14.65l-14.771,42.905c-1.757,5.105-5.667,9.175-10.203,10.62l-36.339,11.58
		c-18.188,5.795-36.757,8.734-55.196,8.733c-0.003,0-0.009,0-0.012,0c-3.675,0-7.328-0.12-10.955-0.348l49.823-171.944
		C248.919,155.045,267.533,172.684,282.425,194.489z M23.224,191.468l14.771-42.905c1.758-5.105,5.667-9.175,10.204-10.62
		l36.339-11.58c18.118-5.773,36.621-8.709,54.999-8.731l-20.486,70.7c-1.12,3.865,1.105,7.906,4.971,9.027
		c3.866,1.116,7.907-1.105,9.027-4.972l21.476-74.116c0.077,0.007,0.154,0.011,0.231,0.018c0.921,0.08,1.84,0.173,2.758,0.268
		c0.597,0.062,1.193,0.125,1.788,0.193c0.923,0.105,1.845,0.213,2.765,0.333c0.551,0.072,1.099,0.153,1.649,0.23
		c1.721,0.241,3.435,0.508,5.143,0.801c0.505,0.087,1.011,0.168,1.514,0.259c0.924,0.167,1.845,0.348,2.765,0.53
		c0.548,0.109,1.096,0.219,1.642,0.333c0.942,0.197,1.884,0.397,2.821,0.61c0.39,0.088,0.777,0.184,1.166,0.274
		c3.425,0.803,6.821,1.707,10.184,2.723c0.138,0.042,0.277,0.083,0.415,0.125c8.665,2.643,17.118,5.993,25.323,10.045
		l-51.442,177.532c-1.297-0.196-2.59-0.406-3.878-0.631c-0.015-0.003-0.03-0.005-0.044-0.008c-5.16-0.901-10.25-2.036-15.265-3.401
		c-0.039-0.011-0.078-0.021-0.118-0.032c-1.235-0.337-2.465-0.688-3.691-1.053c-0.038-0.011-0.076-0.023-0.114-0.034
		c-12.49-3.73-24.495-8.911-35.917-15.512l20.625-71.179c1.12-3.864-1.105-7.906-4.971-9.027c-3.866-1.116-7.907,1.105-9.027,4.972
		l-19.439,67.085c-8.895-6.256-17.27-13.41-25.028-21.408c-0.038-0.041-0.071-0.085-0.109-0.125
		c-1.665-1.718-3.298-3.479-4.904-5.273c-0.23-0.257-0.461-0.512-0.69-0.771c-0.693-0.783-1.379-1.572-2.059-2.368
		c-0.35-0.41-0.696-0.824-1.044-1.237c-0.828-0.985-1.646-1.978-2.455-2.982c-0.669-0.831-1.337-1.664-1.994-2.509
		c-0.413-0.531-0.818-1.069-1.226-1.605c-0.627-0.825-1.25-1.655-1.865-2.493c-0.337-0.458-0.673-0.916-1.006-1.377
		c-0.942-1.308-1.877-2.624-2.791-3.963l-21.509-31.496C22.043,202.187,21.467,196.574,23.224,191.468z M35.887,248.261
		c0.23,0.326,0.475,0.641,0.706,0.967c0.909,1.275,1.831,2.534,2.764,3.781c0.361,0.483,0.718,0.968,1.083,1.448
		c4.208,5.527,8.653,10.774,13.311,15.736v44.283H35.887V248.261z M14.573,338.651v-5.144c0-2.459,2-4.459,4.46-4.459H28.6h27.123
		c-2.274,4.38-3.986,9.096-5.011,14.064H19.033C16.574,343.112,14.573,341.111,14.573,338.651z M104.339,394.374
		c-22.157,0-40.182-18.026-40.182-40.182c0-22.157,18.026-40.182,40.182-40.182s40.183,18.026,40.183,40.182
		C144.522,376.349,126.496,394.374,104.339,394.374z M412.289,394.374c-22.157,0-40.183-18.026-40.183-40.182
		c0-22.157,18.026-40.182,40.183-40.182c22.157,0,40.182,18.026,40.182,40.182C452.471,376.349,434.445,394.374,412.289,394.374z
		 M497.427,338.651c0,2.459-2,4.46-4.46,4.46h-27.051c-1.025-4.967-2.737-9.684-5.011-14.064h32.063c2.459,0,4.46,2,4.46,4.459
		v5.145H497.427z"/>
</g>
<g>
</g>
<g>
</g>
<g>
</g>
<g>
</g>
<g>
</g>
<g>
</g>
<g>
</g>
<g>
</g>
<g>
</g>
<g>
</g>
<g>
</g>
<g>
</g>
<g>
</g>
<g>
</g>
<g>
</g>
</svg>
