<?xml version="1.0" encoding="iso-8859-1"?>
<!-- Generator: Adobe Illustrator 21.0.0, SVG Export Plug-In . SVG Version: 6.00 Build 0)  -->
<svg xmlns="http://www.w3.org/2000/svg" xmlns:xlink="http://www.w3.org/1999/xlink" version="1.1" id="Capa_1" x="0px" y="0px" viewBox="0 0 578.896 578.896" style="enable-background:new 0 0 578.896 578.896;" xml:space="preserve" width="512" height="512">
<g>
	<g id="Excavator">
		<polygon style="fill:#E0E0E2;" points="339.353,199.619 296.005,199.619 219.581,276.043 219.581,299.429 339.353,299.429   "/>
		<circle style="fill:#57565C;" cx="339.353" cy="519.01" r="29.943"/>
		<circle style="fill:#57565C;" cx="459.124" cy="519.01" r="29.943"/>
		<circle style="fill:#57565C;" cx="219.581" cy="519.01" r="29.943"/>
		<polygon style="fill:#FFE169;" points="519.01,399.238 578.896,399.238 578.896,299.429 379.276,299.429 379.276,399.238   "/>
		<polygon style="fill:#EBBF00;" points="59.886,84.639 207.205,231.958 249.524,189.638 59.886,0 0,0 0,279.467 29.943,279.467       "/>
		<polygon style="fill:#C0AB91;" points="124.762,259.505 109.781,259.505 99.82,279.467 29.943,279.467 0,279.467 0,339.353     89.829,399.238   "/>
		<polygon style="fill:#DDB200;" points="339.353,399.238 179.657,399.238 159.695,399.238 159.695,459.124 339.353,459.124   "/>
		<polygon style="fill:#E4C133;" points="339.353,459.124 519.01,459.124 519.01,399.238 379.276,399.238 339.353,399.238   "/>
		<polygon style="fill:#FFD733;" points="339.353,299.429 339.353,399.238 379.276,399.238 379.276,299.429 379.276,159.695     339.353,159.695 339.353,199.619   "/>
		<polygon style="fill:#FFCD00;" points="339.353,299.429 219.581,299.429 219.581,276.043 296.005,199.619 339.353,199.619     339.353,159.695 279.467,159.695 249.524,189.638 207.205,231.958 179.657,259.505 179.657,399.238 339.353,399.238   "/>
		<path style="fill:#A1A0A6;" d="M519.01,459.124H339.353v29.943c16.537,0,29.943,13.406,29.943,29.943    c0,16.537-13.406,29.943-29.943,29.943v29.943H519.01c33.074,0,59.886-26.812,59.886-59.886    C578.896,485.936,552.084,459.124,519.01,459.124L519.01,459.124z M459.124,548.953c-16.537,0-29.943-13.406-29.943-29.943    c0-16.537,13.406-29.943,29.943-29.943s29.943,13.406,29.943,29.943C489.067,535.547,475.661,548.953,459.124,548.953    L459.124,548.953z"/>
		<path style="fill:#898890;" d="M309.41,519.01c0-16.537,13.406-29.943,29.943-29.943v-29.943H159.695    c-33.074,0-59.886,26.812-59.886,59.886c0,33.074,26.812,59.886,59.886,59.886h179.657v-29.943    C322.816,548.953,309.41,535.547,309.41,519.01L309.41,519.01z M219.581,548.953c-16.537,0-29.943-13.406-29.943-29.943    c0-16.537,13.406-29.943,29.943-29.943s29.943,13.406,29.943,29.943C249.524,535.547,236.118,548.953,219.581,548.953    L219.581,548.953z"/>
	</g>
</g>















</svg>
