<?xml version="1.0" encoding="iso-8859-1"?>
<!-- Generator: Adobe Illustrator 19.0.0, SVG Export Plug-In . SVG Version: 6.00 Build 0)  -->
<svg version="1.1" id="Capa_1" xmlns="http://www.w3.org/2000/svg" xmlns:xlink="http://www.w3.org/1999/xlink" x="0px" y="0px"
	 viewBox="0 0 512 512" style="enable-background:new 0 0 512 512;" xml:space="preserve">
<g>
	<path style="fill:#F25D4D;" d="M166.123,512L166.123,512c-11.358,0-20.566-9.208-20.566-20.566v-10.339h41.132v10.339
		C186.689,502.792,177.481,512,166.123,512z"/>
	<path style="fill:#F25D4D;" d="M415.802,512L415.802,512c-11.358,0-20.566-9.208-20.566-20.566v-10.339h41.132v10.339
		C436.368,502.792,427.16,512,415.802,512z"/>
</g>
<path style="fill:#7C7382;" d="M455.872,106.244L125.764,47.93c-8.393-1.483-13.997-9.486-12.519-17.879l0.005-0.026
	c1.479-8.401,9.49-14.011,17.891-12.527l330.108,58.313c8.393,1.483,12.73,9.486,11.252,17.879v0.06
	C471.021,102.151,464.272,107.728,455.872,106.244z"/>
<path style="fill:#E8E8E8;" d="M416.157,62.367c0,1.782-0.154,3.585-0.473,5.398l-34.201-6.047l-204.797-36.17
	C179.329,10.549,192.347,0,207.031,0c1.779,0,3.589,0.154,5.399,0.474l143.335,25.322l34.89,6.16
	C405.627,34.604,416.157,47.646,416.157,62.367z"/>
<path style="fill:#D6D6D6;" d="M416.292,62.367c0,1.782-0.154,3.585-0.473,5.398l-34.201-6.047
	c2.859-16.751-8.319-32.698-25.049-35.655l-0.668-0.268l34.89,6.16C405.762,34.604,416.292,47.646,416.292,62.367z"/>
<path style="fill:#7C7382;" d="M470,481.095H111.925c-2.209,0-4-1.791-4-4V264.757H474v212.338
	C474,479.304,472.209,481.095,470,481.095z"/>
<path style="fill:#67606B;" d="M470,481.095h-26.849V264.757H474v212.338C474,479.304,472.209,481.095,470,481.095z"/>
<path style="fill:#F2DC50;" d="M138.774,446.189V299.662c0-2.209,1.791-4,4-4h296.377c2.209,0,4,1.791,4,4v146.527
	c0,2.209-1.791,4-4,4H142.774C140.564,450.189,138.774,448.398,138.774,446.189z"/>
<rect x="38" y="233.85" style="fill:#F25D4D;" width="436" height="30.905"/>
<rect x="443.15" y="233.85" style="fill:#BF4437;" width="30.849" height="30.905"/>
<path style="fill:#E8E8E8;" d="M474,233.851H107.925V111.439c0-2.209,1.791-4,4-4H474V233.851z"/>
<rect x="443.15" y="107.44" style="fill:#D6D6D6;" width="30.849" height="126.41"/>
<path style="fill:#F25D4D;" d="M474,107.439h-57.035V96.7c0-14.551,11.796-26.347,26.347-26.347H470c2.209,0,4,1.791,4,4V107.439z"
	/>
<path style="fill:#BF4437;" d="M443.154,70.352c-0.001,0.001-0.002,0.002-0.004,0.004v37.083H474V74.352c0-2.209-1.791-4-4-4
	H443.154z"/>
<path style="fill:#5ED3E6;" d="M419.206,207.157h-63.981c-2.209,0-4-1.791-4-4v-64.113c0-2.209,1.791-4,4-4h63.981
	c2.209,0,4,1.791,4,4v64.113C423.206,205.366,421.415,207.157,419.206,207.157z"/>
<path style="fill:#F25D4D;" d="M306.387,336.128h-30.849c-4.142,0-7.5-3.357-7.5-7.5s3.358-7.5,7.5-7.5h30.849
	c4.142,0,7.5,3.357,7.5,7.5S310.529,336.128,306.387,336.128z"/>
<g>
</g>
<g>
</g>
<g>
</g>
<g>
</g>
<g>
</g>
<g>
</g>
<g>
</g>
<g>
</g>
<g>
</g>
<g>
</g>
<g>
</g>
<g>
</g>
<g>
</g>
<g>
</g>
<g>
</g>
</svg>
