<?xml version="1.0" encoding="iso-8859-1"?>
<!-- Generator: Adobe Illustrator 19.0.0, SVG Export Plug-In . SVG Version: 6.00 Build 0)  -->
<svg version="1.1" id="Layer_1" xmlns="http://www.w3.org/2000/svg" xmlns:xlink="http://www.w3.org/1999/xlink" x="0px" y="0px"
	 viewBox="0 0 512 512" style="enable-background:new 0 0 512 512;" xml:space="preserve">
<path style="fill:#FFD15C;" d="M503.467,357.867V353.6c0-42.667,7.467-82.133-29.867-102.4c-6.4-3.2-12.8-6.4-19.2-9.6
	c-18.133-8.533-33.067-21.333-44.8-37.333c-9.6-12.8-18.133-26.667-26.667-40.533c-18.133-27.733-49.067-44.8-83.2-44.8H177.067
	c-39.467,0-75.733,23.467-91.733,59.733l-4.267,8.533c-8.533,19.2-23.467,35.2-41.6,45.867c-19.2,12.8-32,34.133-32,57.6V356.8h496
	V357.867z"/>
<path style="fill:#F8B64C;" d="M497.067,373.867H14.933C6.4,373.867,0,367.467,0,358.933v-1.067c0-8.533,6.4-14.933,14.933-14.933
	h482.133c8.533,0,14.933,6.4,14.933,14.933v1.067C512,367.467,505.6,373.867,497.067,373.867z"/>
<g>
	<circle style="fill:#40596B;" cx="89.6" cy="358.933" r="58.667"/>
	<circle style="fill:#40596B;" cx="392.533" cy="358.933" r="58.667"/>
</g>
<g>
	<circle style="fill:#FFFFFF;" cx="392.533" cy="358.933" r="24.533"/>
	<circle style="fill:#FFFFFF;" cx="89.6" cy="358.933" r="24.533"/>
</g>
<g>
	<path style="fill:#54C0EB;" d="M390.4,213.867c-6.4-8.533-11.733-18.133-18.133-26.667c-2.133-4.267-5.333-8.533-7.467-12.8
		c-14.933-22.4-39.467-35.2-66.133-35.2h-44.8v74.667L390.4,213.867L390.4,213.867z"/>
	<path style="fill:#54C0EB;" d="M227.2,213.867V139.2h-50.133c-30.933,0-59.733,18.133-71.467,46.933l-4.267,8.533
		c-3.2,6.4-6.4,12.8-10.667,19.2L227.2,213.867L227.2,213.867z"/>
</g>
<g>
	<path style="fill:#84DBFF;" d="M299.733,213.867l48-57.6c-4.267-3.2-8.533-6.4-13.867-8.533L278.4,213.867H299.733z"/>
	<polygon style="fill:#84DBFF;" points="152.533,213.867 215.467,140.267 194.133,140.267 131.2,213.867 	"/>
</g>
<g>
	<rect x="182.4" y="262.933" style="fill:#FF7058;" width="28.8" height="28.8"/>
	<rect x="212.267" y="292.8" style="fill:#FF7058;" width="28.8" height="28.8"/>
	<rect x="241.067" y="262.933" style="fill:#FF7058;" width="28.8" height="28.8"/>
	<rect x="299.733" y="262.933" style="fill:#FF7058;" width="28.8" height="28.8"/>
	<rect x="270.933" y="292.8" style="fill:#FF7058;" width="28.8" height="28.8"/>
</g>
<polygon style="fill:#CDD6E0;" points="283.733,118.933 228.267,118.933 236.8,94.4 275.2,94.4 "/>
<g>
</g>
<g>
</g>
<g>
</g>
<g>
</g>
<g>
</g>
<g>
</g>
<g>
</g>
<g>
</g>
<g>
</g>
<g>
</g>
<g>
</g>
<g>
</g>
<g>
</g>
<g>
</g>
<g>
</g>
</svg>
