<?xml version="1.0" encoding="iso-8859-1"?>
<!-- Generator: Adobe Illustrator 19.0.0, SVG Export Plug-In . SVG Version: 6.00 Build 0)  -->
<svg version="1.1" id="Capa_1" xmlns="http://www.w3.org/2000/svg" xmlns:xlink="http://www.w3.org/1999/xlink" x="0px" y="0px"
	 viewBox="0 0 512 512" style="enable-background:new 0 0 512 512;" xml:space="preserve">
<path style="fill:#4B494F;" d="M106.902,280.852H48.917c-13.724,0-24.85,11.126-24.85,24.85c0,3.491,0.723,6.811,2.022,9.826
	l34.498,82.753c7.22,18.532,25.226,31.67,46.313,31.67c0,0,149.099,0,149.1,0h149.1c21.086,0,39.093-13.139,46.313-31.67
	l34.498-82.753c1.299-3.014,2.022-6.335,2.022-9.826c0-13.724-11.126-24.85-24.85-24.85c0,0-17.274,0-41.419,0H106.902z"/>
<g>
	<rect x="206.3" y="214.33" style="fill:#57555C;" width="99.4" height="41.917"/>
	<path style="fill:#57555C;" d="M140.033,113.666V88.049c0-3.314,2.686-6,6-6h70.833c3.314,0,6,2.686,6,6v25.617H140.033z"/>
</g>
<path style="fill:#4B494F;" d="M216.866,82.049h-20c3.314,0,6,2.686,6,6v25.617h20V88.049
	C222.866,84.736,220.18,82.049,216.866,82.049z"/>
<polygon style="fill:#57555C;" points="350.521,164.883 483.566,164.883 483.566,131.749 293.501,131.749 "/>
<g>
	<circle style="fill:#85828C;" cx="48.918" cy="305.7" r="24.85"/>
	<circle style="fill:#85828C;" cx="463.08" cy="305.7" r="24.85"/>
	<path style="fill:#85828C;" d="M421.667,280.848l-14.908,29.819c-1.016,2.033-3.094,3.317-5.367,3.317H112.9c-3.314,0-6-2.686-6-6
		v-27.132L421.667,280.848z"/>
</g>
<polygon style="fill:#57555C;" points="231.151,396.815 147.999,396.815 147.999,363.681 364.001,363.681 364.001,396.815 
	281.845,396.815 "/>
<g>
	<path style="fill:#85828C;" d="M106.902,330.551c-27.448,0-49.7,22.251-49.7,49.699s22.251,49.7,49.7,49.7
		c27.448,0,49.699-22.251,49.699-49.7C156.601,352.802,134.35,330.551,106.902,330.551z M106.902,405.096
		c-13.724,0-24.849-11.125-24.849-24.849s11.125-24.849,24.849-24.849s24.849,11.125,24.849,24.849
		C131.75,393.97,120.625,405.096,106.902,405.096z"/>
	<path style="fill:#85828C;" d="M405.1,330.551c-27.448,0-49.7,22.251-49.7,49.699s22.251,49.7,49.7,49.7
		c27.448,0,49.699-22.251,49.699-49.7C454.8,352.802,432.549,330.551,405.1,330.551z M405.101,405.096
		c-13.724,0-24.849-11.125-24.849-24.849s11.125-24.849,24.849-24.849s24.849,11.125,24.849,24.849
		C429.95,393.97,418.825,405.096,405.101,405.096z"/>
	<path style="fill:#85828C;" d="M106.901,368.601c-4.142,0-7.5,3.357-7.5,7.5v8.284c0,4.143,3.358,7.5,7.5,7.5s7.5-3.357,7.5-7.5
		v-8.284C114.401,371.959,111.044,368.601,106.901,368.601z"/>
	<path style="fill:#85828C;" d="M405.101,368.601c-4.143,0-7.5,3.357-7.5,7.5v8.284c0,4.143,3.357,7.5,7.5,7.5s7.5-3.357,7.5-7.5
		v-8.284C412.601,371.959,409.244,368.601,405.101,368.601z"/>
</g>
<path style="fill:#3BCD92;" d="M173.168,222.867h165.666c9.15,0,16.568-7.418,16.568-16.568v-45.993c0-2.273-1.284-4.35-3.317-5.367
	l-94.816-47.409c-0.833-0.417-1.752-0.633-2.683-0.633H112.901c-3.314,0-6,2.686-6,6v73.128c0,2.273,1.284,4.35,3.317,5.367
	L173.168,222.867z"/>
<path style="fill:#36A882;" d="M173.168,124.25h-41.417c-4.142,0-7.5,3.357-7.5,7.5v41.417c0,4.143,3.358,7.5,7.5,7.5h41.417
	c4.142,0,7.5-3.357,7.5-7.5V131.75C180.668,127.607,177.31,124.25,173.168,124.25z M165.668,165.667h-26.417V139.25h26.417V165.667z
	"/>
<path style="fill:#3BCD92;" d="M487.934,280.852l-14.908-29.818c-1.016-2.033-3.094-3.317-5.367-3.317h-301.22
	c-1.02,0-2.022-0.26-2.914-0.755l-71.833-39.906c-0.891-0.495-1.894-0.755-2.914-0.755h-58.71c-3.314,0-6,2.686-6,6v13.673v35.206
	v19.67L487.934,280.852z"/>
<path style="fill:#FEB756;" d="M498.5,181.451h-21.132c-3.314,0-6-2.686-6-6v-54.267c0-3.314,2.686-6,6-6H498.5c3.314,0,6,2.686,6,6
	v54.267C504.5,178.765,501.814,181.451,498.5,181.451z"/>
<path style="fill:#FA8043;" d="M498.5,115.184h-20c3.314,0,6,2.686,6,6v54.267c0,3.314-2.686,6-6,6h20c3.314,0,6-2.686,6-6v-54.267
	C504.5,117.87,501.814,115.184,498.5,115.184z"/>
<path style="fill:#36A882;" d="M352.084,154.94l-94.816-47.409c-0.833-0.417-1.752-0.633-2.683-0.633h-20
	c0.931,0,1.85,0.217,2.683,0.633l94.816,47.409c2.033,1.016,3.317,3.094,3.317,5.366v45.993c0,9.15-7.417,16.568-16.567,16.568h20
	c9.15,0,16.567-7.418,16.567-16.568v-45.993C355.401,158.034,354.117,155.956,352.084,154.94z"/>
<path style="fill:#57555C;" d="M355.401,190.516H108.932c0.385,0.34,0.813,0.639,1.286,0.876l28.248,14.124h216.935V190.516z"/>
<path style="fill:#FD3A4E;" d="M42.917,260.143H13.5c-3.314,0-6-2.686-6-6v-21.134c0-3.314,2.686-6,6-6h29.417c3.314,0,6,2.686,6,6
	v21.134C48.917,257.456,46.231,260.143,42.917,260.143z"/>
<path style="fill:#DE0B2B;" d="M42.917,227.009H22.918c3.314,0,6,2.686,6,6v21.134c0,3.314-2.686,6-6,6h19.999c3.314,0,6-2.686,6-6
	v-21.134C48.917,229.695,46.231,227.009,42.917,227.009z"/>
<g>
	<path style="fill:#36A882;" d="M453.025,251.033l14.908,29.818h20.001l-14.908-29.818c-1.016-2.033-3.094-3.317-5.367-3.317
		h-20.001C449.931,247.716,452.009,249.001,453.025,251.033z"/>
	<path style="fill:#36A882;" d="M143.524,246.962c0.891,0.495,1.894,0.755,2.914,0.755h20.001c-1.02,0-2.022-0.26-2.914-0.755
		l-71.833-39.907c-0.891-0.495-1.894-0.755-2.914-0.755H68.777c1.02,0,2.022,0.26,2.914,0.755L143.524,246.962z"/>
</g>
<path style="fill:#FEB756;" d="M504.5,273.348H7.5c-4.142,0-7.5,3.357-7.5,7.5s3.358,7.5,7.5,7.5h497c4.143,0,7.5-3.357,7.5-7.5
	C512,276.706,508.642,273.348,504.5,273.348z"/>
<circle style="fill:#85828C;" cx="256" cy="405.1" r="24.85"/>
<g>
</g>
<g>
</g>
<g>
</g>
<g>
</g>
<g>
</g>
<g>
</g>
<g>
</g>
<g>
</g>
<g>
</g>
<g>
</g>
<g>
</g>
<g>
</g>
<g>
</g>
<g>
</g>
<g>
</g>
</svg>
