<svg xmlns="http://www.w3.org/2000/svg" height="512pt" version="1.1" viewBox="0 -66 512.00002 512" width="512pt">
<g id="surface1">
<path d="M 326.621094 317.792969 L 512 317.792969 L 512 0 L 0 0 L 0 317.792969 Z M 26.484375 26.484375 L 485.515625 26.484375 L 485.515625 264.828125 L 26.484375 264.828125 Z M 26.484375 26.484375 " style=" stroke:none;fill-rule:nonzero;fill:rgb(67.45098%,67.058824%,69.411765%);fill-opacity:1;" />
<path d="M 406.070312 282.484375 L 423.722656 282.484375 L 423.722656 300.136719 L 406.070312 300.136719 Z M 406.070312 282.484375 " style=" stroke:none;fill-rule:nonzero;fill:rgb(42.745098%,43.137255%,44.313725%);fill-opacity:1;" />
<path d="M 432.550781 282.484375 L 450.207031 282.484375 L 450.207031 300.136719 L 432.550781 300.136719 Z M 432.550781 282.484375 " style=" stroke:none;fill-rule:nonzero;fill:rgb(42.745098%,43.137255%,44.313725%);fill-opacity:1;" />
<path d="M 459.035156 282.484375 L 476.691406 282.484375 L 476.691406 300.136719 L 459.035156 300.136719 Z M 459.035156 282.484375 " style=" stroke:none;fill-rule:nonzero;fill:rgb(42.745098%,43.137255%,44.313725%);fill-opacity:1;" />
<path d="M 229.519531 282.484375 L 282.484375 282.484375 L 282.484375 300.136719 L 229.519531 300.136719 Z M 229.519531 282.484375 " style=" stroke:none;fill-rule:nonzero;fill:rgb(42.745098%,43.137255%,44.313725%);fill-opacity:1;" />
<path d="M 185.378906 317.792969 L 326.621094 317.792969 L 326.621094 370.757812 L 185.378906 370.757812 Z M 185.378906 317.792969 " style=" stroke:none;fill-rule:nonzero;fill:rgb(50.196078%,50.980392%,52.156863%);fill-opacity:1;" />
<path d="M 97.105469 361.929688 L 414.898438 361.929688 L 414.898438 379.585938 L 97.105469 379.585938 Z M 97.105469 361.929688 " style=" stroke:none;fill-rule:nonzero;fill:rgb(42.745098%,43.137255%,44.313725%);fill-opacity:1;" />
<path d="M 335.449219 264.828125 L 485.519531 264.828125 L 485.519531 132.414062 C 485.515625 205.605469 418.429688 264.828125 335.449219 264.828125 Z M 335.449219 264.828125 " style=" stroke:none;fill-rule:nonzero;fill:rgb(0%,36.862745%,80.784314%);fill-opacity:1;" />
<path d="M 26.484375 26.484375 L 26.484375 264.828125 L 335.449219 264.828125 C 418.429688 264.828125 485.519531 205.605469 485.519531 132.414062 L 485.519531 26.484375 Z M 26.484375 26.484375 " style=" stroke:none;fill-rule:nonzero;fill:rgb(0%,42.745098%,94.117647%);fill-opacity:1;" />
</g>
</svg>