<?xml version="1.0" encoding="iso-8859-1"?>
<!-- Generator: Adobe Illustrator 19.0.0, SVG Export Plug-In . SVG Version: 6.00 Build 0)  -->
<svg version="1.1" id="Capa_1" xmlns="http://www.w3.org/2000/svg" xmlns:xlink="http://www.w3.org/1999/xlink" x="0px" y="0px"
	 viewBox="0 0 512 512" style="enable-background:new 0 0 512 512;" xml:space="preserve">
<path style="fill:#005ECE;" d="M453.232,200.809H314.766c-31.475,0-57.368,9.349-58.703,40.511
	c-1.335-31.162-27.228-40.511-58.703-40.511H58.768C26.446,200.809,0,227.255,0,259.577v18.259
	c0,32.322,26.445,58.767,58.767,58.767h138.595c31.475,0,57.368-25.081,58.703-56.243c1.335,31.162,27.228,56.243,58.703,56.243
	h138.465c32.322,0,58.767-26.445,58.767-58.767v-18.259C511.999,227.255,485.554,200.809,453.232,200.809z"/>
<path style="fill:#2488FF;" d="M453.232,175.399H314.766c-31.475,0-57.368,25.081-58.703,56.243
	c-1.335-31.162-27.228-56.243-58.703-56.243H58.768C26.446,175.399,0,201.843,0,234.165v8.396c0,32.322,26.446,58.767,58.768,58.767
	h138.594c31.475,0,57.368-25.081,58.703-56.243c1.335,31.162,27.228,56.243,58.703,56.243h138.465
	c32.322,0,58.767-26.445,58.767-58.767v-8.396C511.999,201.843,485.554,175.399,453.232,175.399z"/>
<g>
	<path style="fill:#004FAC;" d="M106.108,237.455h41.207c4.267,0,7.726-3.459,7.726-7.726s-3.459-7.726-7.726-7.726h-41.207
		c-4.267,0-7.726,3.459-7.726,7.726S101.841,237.455,106.108,237.455z"/>
	<path style="fill:#004FAC;" d="M202.258,222.002h-24.037c-4.267,0-7.726,3.459-7.726,7.726s3.459,7.726,7.726,7.726h24.037
		c4.267,0,7.726-3.459,7.726-7.726S206.526,222.002,202.258,222.002z"/>
	<path style="fill:#004FAC;" d="M200.885,251.533h-96.15c-4.267,0-7.726,3.459-7.726,7.726c0,4.267,3.459,7.726,7.726,7.726h96.15
		c4.267,0,7.726-3.459,7.726-7.726C208.611,254.992,205.152,251.533,200.885,251.533z"/>
	<path style="fill:#004FAC;" d="M309.741,237.455h96.15c4.267,0,7.726-3.459,7.726-7.726s-3.459-7.726-7.726-7.726h-96.15
		c-4.267,0-7.726,3.459-7.726,7.726S305.473,237.455,309.741,237.455z"/>
	<path style="fill:#004FAC;" d="M407.264,251.533h-41.207c-4.267,0-7.726,3.459-7.726,7.726c0,4.267,3.459,7.726,7.726,7.726h41.207
		c4.267,0,7.726-3.459,7.726-7.726C414.99,254.992,411.532,251.533,407.264,251.533z"/>
	<path style="fill:#004FAC;" d="M335.151,251.533h-24.037c-4.267,0-7.726,3.459-7.726,7.726c0,4.267,3.459,7.726,7.726,7.726h24.037
		c4.267,0,7.726-3.459,7.726-7.726C342.878,254.992,339.419,251.533,335.151,251.533z"/>
</g>
<path style="fill:#3E3D42;" d="M60.781,136.118v239.764c0,2.926-0.422,5.759-1.205,8.437c-3.678,12.651-15.391,21.953-29.185,21.953
	c-16.72,0-30.39-13.67-30.39-30.39V136.118c0-16.72,13.67-30.39,30.39-30.39c3.111,0,6.109,0.474,8.932,1.35
	c4.79,1.473,9.076,4.11,12.537,7.572C57.36,120.161,60.781,127.763,60.781,136.118z"/>
<path style="fill:#57565C;" d="M60.781,136.118v239.764c0,2.926-0.422,5.759-1.205,8.437c-12.393-3.832-21.459-15.422-21.459-29.041
	V115.514c0-2.926,0.422-5.759,1.205-8.437c4.79,1.473,9.076,4.11,12.537,7.572C57.36,120.161,60.781,127.763,60.781,136.118z"/>
<path style="fill:#3E3D42;" d="M511.999,136.118v239.764c0,2.926-0.422,5.759-1.205,8.437
	c-3.678,12.651-15.391,21.953-29.185,21.953c-16.72,0-30.39-13.67-30.39-30.39V136.118c0-16.72,13.67-30.39,30.39-30.39
	c3.111,0,6.109,0.474,8.932,1.35c4.79,1.473,9.076,4.11,12.537,7.572C508.579,120.161,511.999,127.763,511.999,136.118z"/>
<path style="fill:#57565C;" d="M511.999,136.118v239.764c0,2.926-0.422,5.759-1.205,8.437
	c-12.393-3.832-21.459-15.422-21.459-29.041V115.514c0-2.926,0.422-5.759,1.205-8.437c4.79,1.473,9.076,4.11,12.537,7.572
	C508.579,120.161,511.999,127.763,511.999,136.118z"/>
<g>
	<path style="fill:#1D1D1F;" d="M60.781,142.34v15.453H32.276c-4.265,0-7.726-3.461-7.726-7.726c0-4.275,3.461-7.726,7.726-7.726
		H60.781z"/>
	<path style="fill:#1D1D1F;" d="M37.941,193.334c0,4.265-3.451,7.726-7.726,7.726H0v-15.453h30.215
		C34.49,185.608,37.941,189.059,37.941,193.334z"/>
	<path style="fill:#1D1D1F;" d="M60.781,224.064v15.453H31.245c-4.265,0-7.726-3.461-7.726-7.726s3.461-7.726,7.726-7.726H60.781z"
		/>
	<path style="fill:#1D1D1F;" d="M37.941,275.058c0,4.265-3.451,7.726-7.726,7.726H0v-15.453h30.215
		C34.49,267.332,37.941,270.793,37.941,275.058z"/>
	<path style="fill:#1D1D1F;" d="M60.781,305.789v15.453H32.276c-4.265,0-7.726-3.451-7.726-7.726c0-4.265,3.461-7.726,7.726-7.726
		H60.781z"/>
	<path style="fill:#1D1D1F;" d="M37.941,353.434c0,4.275-3.451,7.726-7.726,7.726H0v-15.453h30.215
		C34.49,345.708,37.941,349.169,37.941,353.434z"/>
	<path style="fill:#1D1D1F;" d="M451.219,142.34v15.453h28.505c4.265,0,7.726-3.461,7.726-7.726c0-4.275-3.461-7.726-7.726-7.726
		H451.219z"/>
	<path style="fill:#1D1D1F;" d="M474.059,193.334c0,4.265,3.451,7.726,7.726,7.726H512v-15.453h-30.215
		C477.51,185.608,474.059,189.059,474.059,193.334z"/>
	<path style="fill:#1D1D1F;" d="M451.219,224.064v15.453h29.535c4.265,0,7.726-3.461,7.726-7.726s-3.461-7.726-7.726-7.726H451.219z
		"/>
	<path style="fill:#1D1D1F;" d="M474.059,275.058c0,4.265,3.451,7.726,7.726,7.726H512v-15.453h-30.215
		C477.51,267.332,474.059,270.793,474.059,275.058z"/>
	<path style="fill:#1D1D1F;" d="M451.219,305.789v15.453h28.505c4.265,0,7.726-3.451,7.726-7.726c0-4.265-3.461-7.726-7.726-7.726
		H451.219z"/>
	<path style="fill:#1D1D1F;" d="M474.059,353.434c0,4.275,3.451,7.726,7.726,7.726H512v-15.453h-30.215
		C477.51,345.708,474.059,349.169,474.059,353.434z"/>
</g>
<g>
</g>
<g>
</g>
<g>
</g>
<g>
</g>
<g>
</g>
<g>
</g>
<g>
</g>
<g>
</g>
<g>
</g>
<g>
</g>
<g>
</g>
<g>
</g>
<g>
</g>
<g>
</g>
<g>
</g>
</svg>
