<svg height="480pt" viewBox="0 -48 480.00918 480" width="480pt" xmlns="http://www.w3.org/2000/svg"><path d="m384.003906 32.003906h-320v184h352v-184zm0 0" fill="#95b4db"/><path d="m64.003906 32.003906v160l320-160zm0 0" fill="#aacefa"/><path d="m384.003906 32.003906-320 160v24h352v-184zm0 0" fill="#95b4db"/><path d="m416.003906 24.003906h-352c-4.417968 0-8 3.582032-8 8v184c0 4.417969 3.582032 8 8 8h352c4.417969 0 8-3.582031 8-8v-184c0-4.417968-3.582031-8-8-8zm-8 184h-336v-168h336zm0 0" fill="#231f20"/><path d="m96.003906 136.003906c4.417969 0 8-3.582031 8-8v-56h56c4.417969 0 8-3.582031 8-8 0-4.417968-3.582031-8-8-8h-64c-4.417968 0-8 3.582032-8 8v64c0 4.417969 3.582032 8 8 8zm0 0" fill="#231f20"/><path d="m40.003906 240.003906-32 136h464l-32-136zm16 64" fill="#595765"/><path d="m440.003906 8.003906h-400v232h400zm-24 208h-352v-184h352zm0 0" fill="#565659"/><g fill="#231f20"><path d="m479.796875 374.171875-31.792969-135.101563v-231.066406c0-4.417968-3.582031-7.99999975-8-7.99999975h-400c-4.417968 0-8 3.58203175-8 7.99999975v231.066406l-31.792968 135.101563c-.558594 2.378906 0 4.886719 1.519531 6.800781 1.519531 1.917969 3.828125 3.035156 6.273437 3.03125h464c2.445313.003906 4.757813-1.113281 6.273438-3.03125 1.519531-1.914062 2.078125-4.421875 1.519531-6.800781zm-431.792969-358.167969h384v216h-384zm-29.894531 352 28.230469-120h387.328125l28.234375 120zm0 0"/><path d="m424.003906 296.003906h-368c-4.417968 0-8 3.582032-8 8 0 4.417969 3.582032 8 8 8h368c4.417969 0 8-3.582031 8-8 0-4.417968-3.582031-8-8-8zm0 0"/><path d="m64.003906 280.003906h352c4.417969 0 8-3.582031 8-8 0-4.417968-3.582031-8-8-8h-352c-4.417968 0-8 3.582032-8 8 0 4.417969 3.582032 8 8 8zm0 0"/></g></svg>