<?xml version="1.0" encoding="iso-8859-1"?>
<!-- Generator: Adobe Illustrator 19.0.0, SVG Export Plug-In . SVG Version: 6.00 Build 0)  -->
<svg version="1.1" id="Capa_1" xmlns="http://www.w3.org/2000/svg" xmlns:xlink="http://www.w3.org/1999/xlink" x="0px" y="0px"
	 viewBox="0 0 512 512" style="enable-background:new 0 0 512 512;" xml:space="preserve">
<path style="fill:#F0C800;" d="M512,113.623V373.77c0,8.976-7.283,16.259-16.259,16.259H16.335c-9.017,0-16.332-7.314-16.332-16.342
	V113.623c0-29.247,23.709-52.966,52.966-52.966h406.066C488.281,60.658,512,84.366,512,113.623z"/>
<rect x="0.003" y="201.947" style="fill:#D3AB02;" width="30.814" height="148.657"/>
<path style="fill:#FCDA4C;" d="M511.997,113.62v135.24H0V113.62c0-29.247,23.709-52.966,52.966-52.966h406.066
	C488.278,60.654,511.997,84.373,511.997,113.62z"/>
<path style="fill:#9AA7B8;" d="M511.004,350.601H0v23.085c0,9.024,7.315,16.339,16.339,16.339h478.414
	c8.976,0,16.252-7.277,16.252-16.252v-23.172H511.004z"/>
<path style="fill:#8292A3;" d="M30.815,350.601H0v23.085c0,9.024,7.315,16.339,16.339,16.339h14.477v-39.424H30.815z"/>
<g>
	<circle style="fill:#2C4046;" cx="417.716" cy="390.027" r="61.319"/>
	<circle style="fill:#2C4046;" cx="109.379" cy="390.027" r="61.319"/>
</g>
<g>
	<circle style="fill:#9AA7B8;" cx="417.716" cy="390.027" r="27.483"/>
	<circle style="fill:#9AA7B8;" cx="109.379" cy="390.027" r="27.483"/>
</g>
<g>
	<path style="fill:#1D2C30;" d="M417.712,425.348c-19.476,0-35.319-15.844-35.319-35.319s15.844-35.319,35.319-35.319
		s35.319,15.844,35.319,35.319S437.187,425.348,417.712,425.348z M417.712,370.382c-10.832,0-19.646,8.813-19.646,19.646
		c0,10.833,8.814,19.646,19.646,19.646s19.646-8.813,19.646-19.646C437.358,379.195,428.545,370.382,417.712,370.382z"/>
	<path style="fill:#1D2C30;" d="M109.375,425.348c-19.476,0-35.319-15.844-35.319-35.319s15.844-35.319,35.319-35.319
		s35.319,15.844,35.319,35.319S128.851,425.348,109.375,425.348z M109.375,370.382c-10.832,0-19.646,8.813-19.646,19.646
		c0,10.833,8.814,19.646,19.646,19.646s19.646-8.813,19.646-19.646C129.021,379.195,120.207,370.382,109.375,370.382z"/>
</g>
<path style="fill:#C0EAF9;" d="M109.787,60.654v181.801c0,19.09-15.475,34.565-34.565,34.565H0v-163.4
	c0-29.247,23.709-52.966,52.966-52.966C52.966,60.654,109.787,60.654,109.787,60.654z"/>
<path style="fill:#A0D9F2;" d="M109.787,87.884v154.571c0,19.09-15.475,34.565-34.565,34.565H27.23V140.85
	c0-29.247,23.709-52.966,52.966-52.966L109.787,87.884L109.787,87.884z"/>
<rect y="126.485" style="fill:#D3AB02;" width="109.787" height="15.673"/>
<path style="fill:#C0EAF9;" d="M482.792,145.824v59.569c0,11.839-9.592,21.431-21.431,21.431H162.564
	c-11.839,0-21.431-9.592-21.431-21.431v-59.569c0-11.839,9.592-21.431,21.431-21.431h298.797
	C473.2,124.393,482.792,133.985,482.792,145.824z"/>
<path style="fill:#A0D9F2;" d="M482.792,152.041v53.352c0,11.839-9.592,21.431-21.431,21.431H169.346v-53.352
	c0-11.839,9.592-21.431,21.431-21.431H482.792z"/>
<path style="fill:#D3AB02;" d="M461.365,116.555H162.563c-16.137,0-29.267,13.129-29.267,29.267v59.574
	c0,16.138,13.129,29.267,29.267,29.267h298.801c16.137,0,29.267-13.129,29.267-29.267v-59.574
	C490.632,129.685,477.502,116.555,461.365,116.555z M284.538,132.228h54.854v86.762h-54.854V132.228z M268.864,218.991h-54.853
	v-86.762h54.853V218.991z M355.065,132.228h54.853v86.762h-54.853V132.228z M148.969,205.397v-59.574
	c0-7.496,6.098-13.594,13.594-13.594h35.774v86.762h-35.774C155.067,218.991,148.969,212.892,148.969,205.397z M474.959,205.397
	c0,7.496-6.098,13.594-13.594,13.594h-35.774v-86.762h35.774c7.496,0,13.594,6.098,13.594,13.594V205.397z"/>
<g>
	<path style="fill:#FCDA4C;" d="M449.1,280.597h-274.27c-4.329,0-7.837-3.509-7.837-7.837c0-4.328,3.508-7.837,7.837-7.837H449.1
		c4.329,0,7.837,3.509,7.837,7.837C456.936,277.088,453.428,280.597,449.1,280.597z"/>
	<path style="fill:#FCDA4C;" d="M449.1,313.51h-274.27c-4.329,0-7.837-3.509-7.837-7.837s3.508-7.837,7.837-7.837H449.1
		c4.329,0,7.837,3.509,7.837,7.837S453.428,313.51,449.1,313.51z"/>
</g>
<path style="fill:#FFFFFF;" d="M58.068,320.823H28.289c-4.329,0-7.837-3.509-7.837-7.837s3.508-7.837,7.837-7.837h29.778
	c4.329,0,7.837,3.509,7.837,7.837S62.397,320.823,58.068,320.823z"/>
<path style="fill:#F42737;" d="M485.147,325.263c-4.329,0-7.837-3.509-7.837-7.837v-29.778c0-4.328,3.508-7.837,7.837-7.837
	c4.329,0,7.837,3.509,7.837,7.837v29.778C492.984,321.754,489.475,325.263,485.147,325.263z"/>
<path style="fill:#D3AB02;" d="M75.223,284.86H0v-15.673h75.223c14.737,0,26.727-11.99,26.727-26.727V60.653h15.673v181.806
	C117.623,265.84,98.602,284.86,75.223,284.86z"/>
<g>
</g>
<g>
</g>
<g>
</g>
<g>
</g>
<g>
</g>
<g>
</g>
<g>
</g>
<g>
</g>
<g>
</g>
<g>
</g>
<g>
</g>
<g>
</g>
<g>
</g>
<g>
</g>
<g>
</g>
</svg>
