<?xml version="1.0" encoding="iso-8859-1"?>
<!-- Generator: Adobe Illustrator 19.0.0, SVG Export Plug-In . SVG Version: 6.00 Build 0)  -->
<svg version="1.1" id="Capa_1" xmlns="http://www.w3.org/2000/svg" xmlns:xlink="http://www.w3.org/1999/xlink" x="0px" y="0px"
	 viewBox="0 0 511.923 511.923" style="enable-background:new 0 0 511.923 511.923;" xml:space="preserve">
<path style="fill:#E6E9ED;" d="M379.942,19.998v15.998h-7.998H139.98h-7.999V19.998c0-8.882,7.198-15.998,15.998-15.998h215.967
	C372.819,4.001,379.942,11.116,379.942,19.998z"/>
<path style="fill:#FFFFFF;" d="M163.976,4.001h-15.998c-8.8,0-15.998,7.116-15.998,15.998v15.998h7.999h7.999V19.998
	C147.979,11.116,155.177,4.001,163.976,4.001z"/>
<g style="opacity:0.2;">
	<path d="M347.948,4.001h15.997c8.796,0,15.997,7.116,15.997,15.998v15.998h-7.998h-7.999V19.998
		C363.945,11.116,356.743,4.001,347.948,4.001z"/>
</g>
<g>
	<path style="fill:#3A3847;" d="M356.196,23.997c-2.21,0-4.046-1.789-4.046-3.999c0-2.211,1.75-4,3.968-4h0.078c2.203,0,4,1.789,4,4
		C360.196,22.209,358.4,23.997,356.196,23.997z"/>
	<path style="fill:#3A3847;" d="M340.199,23.997c-2.211,0-4.046-1.789-4.046-3.999c0-2.211,1.749-4,3.968-4h0.078
		c2.202,0,3.999,1.789,3.999,4C344.198,22.209,342.401,23.997,340.199,23.997z"/>
	<path style="fill:#3A3847;" d="M324.201,23.997c-2.21,0-4.046-1.789-4.046-3.999c0-2.211,1.75-4,3.968-4h0.078c2.203,0,4,1.789,4,4
		C328.201,22.209,326.404,23.997,324.201,23.997z"/>
	<path style="fill:#3A3847;" d="M188.218,23.997c-2.207,0-4.039-1.789-4.039-3.999c0-2.211,1.75-4,3.96-4h0.078c2.21,0,4,1.789,4,4
		C192.218,22.209,190.429,23.997,188.218,23.997z"/>
	<path style="fill:#3A3847;" d="M172.221,23.997c-2.207,0-4.038-1.789-4.038-3.999c0-2.211,1.75-4,3.96-4h0.078c2.211,0,4,1.789,4,4
		C176.22,22.209,174.432,23.997,172.221,23.997z"/>
	<path style="fill:#3A3847;" d="M156.223,23.997c-2.207,0-4.039-1.789-4.039-3.999c0-2.211,1.75-4,3.96-4h0.078c2.21,0,4,1.789,4,4
		C160.223,22.209,158.434,23.997,156.223,23.997z"/>
</g>
<path id="SVGCleanerId_0" style="fill:#E6E9ED;" d="M159.977,307.954c6.64,0,67.99,0,67.99,7.998c0,8-61.35,8-67.99,8h-11.998
	v-15.998H159.977z"/>
<g>
	<path id="SVGCleanerId_0_1_" style="fill:#E6E9ED;" d="M159.977,307.954c6.64,0,67.99,0,67.99,7.998c0,8-61.35,8-67.99,8h-11.998
		v-15.998H159.977z"/>
</g>
<path style="fill:#E6E9ED;" d="M159.977,243.964c6.64,0,67.99,0,67.99,7.999c0,8-61.35,8-67.99,8h-11.998v-15.998L159.977,243.964
	L159.977,243.964z"/>
<g>
	<rect x="147.982" y="243.962" style="fill:#FFFFFF;" width="7.999" height="15.998"/>
	<rect x="147.982" y="307.952" style="fill:#FFFFFF;" width="7.999" height="15.998"/>
</g>
<g>
	<path style="fill:#A0D468;" d="M371.944,283.958H139.98h-7.999V35.996h7.999h231.965h7.998v247.962H371.944z M159.977,259.962
		c6.64,0,67.99,0,67.99-8c0-7.999-61.35-7.999-67.99-7.999h-11.998v15.999H159.977z"/>
	<path style="fill:#A0D468;" d="M159.977,323.952c6.64,0,67.99,0,67.99-8c0-7.998-61.35-7.998-67.99-7.998h-11.998v15.998H159.977z
		 M379.942,475.929c0,8.881-7.123,15.997-15.997,15.997H147.979c-8.878,0-15.998-7.116-15.998-15.997V283.958h7.999h231.965h7.998
		L379.942,475.929L379.942,475.929z"/>
</g>
<g style="opacity:0.5;">
	<path style="fill:#FFFFFF;" d="M147.979,475.929V323.952v-15.998v-23.996h-7.999h-7.999v191.971c0,8.881,7.12,15.997,15.998,15.997
		h15.998C155.099,491.926,147.979,484.81,147.979,475.929z"/>
</g>
<g style="opacity:0.2;">
	<path d="M363.945,475.929V323.952v-15.998v-23.996h7.999h7.998v191.971c0,8.881-7.123,15.997-15.997,15.997h-15.997
		C356.821,491.926,363.945,484.81,363.945,475.929z"/>
</g>
<path style="fill:#656D78;" d="M155.985,491.926v7.999c0,4.421,3.578,7.998,7.999,7.998c4.422,0,7.999-3.577,7.999-7.998v-7.999
	H155.985z"/>
<g style="opacity:0.2;">
	<rect x="155.982" y="491.922" width="15.998" height="7.999"/>
</g>
<path style="fill:#656D78;" d="M339.957,491.926v7.999c0,4.421,3.577,7.998,7.999,7.998c4.421,0,7.998-3.577,7.998-7.998v-7.999
	H339.957z"/>
<g style="opacity:0.2;">
	<rect x="339.962" y="491.922" width="15.997" height="7.999"/>
</g>
<g style="opacity:0.5;">
	<rect x="131.982" y="35.992" style="fill:#FFFFFF;" width="15.998" height="247.96"/>
</g>
<g style="opacity:0.2;">
	<rect x="363.942" y="35.992" width="15.997" height="247.96"/>
</g>
<g>
	<path style="fill:#3A3847;" d="M131.981,23.997c-2.21,0-4-1.789-4-3.999c0-11.03,8.971-19.997,19.997-19.997
		c2.21,0,3.999,1.789,3.999,4s-1.789,4-3.999,4c-6.616,0-11.998,5.382-11.998,11.998C135.981,22.209,134.191,23.997,131.981,23.997z
		"/>
	<path style="fill:#3A3847;" d="M147.979,495.925c-11.026,0-19.997-8.967-19.997-19.996c0-2.211,1.789-4,4-4s4,1.789,4,4
		c0,6.615,5.382,11.998,11.998,11.998c2.21,0,3.999,1.789,3.999,3.999C151.978,494.137,150.189,495.925,147.979,495.925z"/>
	<path style="fill:#3A3847;" d="M131.981,479.928c-2.21,0-4-1.789-4-3.999V19.998c0-2.211,1.789-4,4-4s4,1.789,4,4v455.931
		C135.981,478.139,134.191,479.928,131.981,479.928z"/>
	<path style="fill:#3A3847;" d="M363.945,495.925c-2.21,0-3.999-1.788-3.999-3.999c0-2.21,1.789-3.999,3.999-3.999
		c6.616,0,11.998-5.383,11.998-11.998c0-2.211,1.789-4,3.999-4c2.211,0,4,1.789,4,4
		C383.942,486.958,374.976,495.925,363.945,495.925z"/>
	<path style="fill:#3A3847;" d="M379.942,23.997c-2.21,0-3.999-1.789-3.999-3.999c0-6.616-5.382-11.998-11.998-11.998
		c-2.21,0-3.999-1.789-3.999-4s1.789-4,3.999-4c11.03,0,19.997,8.967,19.997,19.997C383.942,22.209,382.153,23.997,379.942,23.997z"
		/>
	<path style="fill:#3A3847;" d="M379.942,479.928c-2.21,0-3.999-1.789-3.999-3.999V19.998c0-2.211,1.789-4,3.999-4
		c2.211,0,4,1.789,4,4v455.931C383.942,478.139,382.153,479.928,379.942,479.928z"/>
	<path style="fill:#3A3847;" d="M363.945,495.925H147.979c-2.211,0-4-1.788-4-3.999c0-2.21,1.789-3.999,4-3.999h215.967
		c2.211,0,3.999,1.789,3.999,3.999C367.944,494.137,366.156,495.925,363.945,495.925z"/>
	<path style="fill:#3A3847;" d="M363.945,8H147.979c-2.211,0-4-1.789-4-4s1.789-4,4-4h215.967c2.211,0,3.999,1.789,3.999,4
		S366.156,8,363.945,8z"/>
	<path style="fill:#3A3847;" d="M363.945,479.928H147.979c-2.211,0-4-1.789-4-3.999c0-2.211,1.789-4,4-4h215.967
		c2.211,0,3.999,1.789,3.999,4C367.944,478.139,366.156,479.928,363.945,479.928z"/>
	<path style="fill:#3A3847;" d="M371.944,287.957H139.98c-2.21,0-3.999-1.789-3.999-3.999c0-2.211,1.789-4,3.999-4h231.965
		c2.211,0,3.999,1.789,3.999,4C375.943,286.168,374.155,287.957,371.944,287.957z"/>
	<path style="fill:#3A3847;" d="M371.944,39.995H139.98c-2.21,0-3.999-1.789-3.999-4s1.789-4,3.999-4h231.965
		c2.211,0,3.999,1.789,3.999,4S374.155,39.995,371.944,39.995z"/>
	<path style="fill:#3A3847;" d="M283.958,23.997h-55.992c-2.21,0-4-1.789-4-3.999c0-2.211,1.789-4,4-4h55.992
		c2.21,0,3.999,1.789,3.999,4C287.957,22.209,286.168,23.997,283.958,23.997z"/>
	<path style="fill:#3A3847;" d="M159.977,263.961c-2.211,0-4-1.789-4-3.999c0-2.211,1.789-4,4-4c31.366,0,52.563-1.844,60.897-4
		c-8.334-2.156-29.531-4-60.897-4c-2.211,0-4-1.789-4-3.999c0-2.211,1.789-4,4-4c71.989,0,71.989,7.803,71.989,11.998
		C231.966,256.156,231.966,263.961,159.977,263.961z"/>
	<path style="fill:#3A3847;" d="M159.977,247.963h-11.998c-2.211,0-4-1.789-4-3.999c0-2.211,1.789-4,4-4h11.998c2.211,0,4,1.789,4,4
		C163.976,246.174,162.188,247.963,159.977,247.963z"/>
	<path style="fill:#3A3847;" d="M147.979,263.961c-2.211,0-4-1.789-4-3.999v-15.998c0-2.211,1.789-4,4-4c2.21,0,3.999,1.789,3.999,4
		v15.998C151.978,262.172,150.189,263.961,147.979,263.961z"/>
	<path style="fill:#3A3847;" d="M159.977,263.961h-11.998c-2.211,0-4-1.789-4-3.999c0-2.211,1.789-4,4-4h11.998c2.211,0,4,1.789,4,4
		C163.976,262.172,162.188,263.961,159.977,263.961z"/>
	<path style="fill:#3A3847;" d="M159.977,327.951c-2.211,0-4-1.789-4-3.999c0-2.211,1.789-4,4-4c31.366,0,52.563-1.844,60.897-4
		c-8.334-2.155-29.531-3.999-60.897-3.999c-2.211,0-4-1.788-4-3.999s1.789-4,4-4c71.989,0,71.989,7.804,71.989,11.998
		C231.966,320.148,231.966,327.951,159.977,327.951z"/>
	<path style="fill:#3A3847;" d="M159.977,311.953h-11.998c-2.211,0-4-1.788-4-3.999s1.789-4,4-4h11.998c2.211,0,4,1.789,4,4
		S162.188,311.953,159.977,311.953z"/>
	<path style="fill:#3A3847;" d="M147.979,327.951c-2.211,0-4-1.789-4-3.999v-15.998c0-2.211,1.789-4,4-4c2.21,0,3.999,1.789,3.999,4
		v15.998C151.978,326.162,150.189,327.951,147.979,327.951z"/>
	<path style="fill:#3A3847;" d="M159.977,327.951h-11.998c-2.211,0-4-1.789-4-3.999c0-2.211,1.789-4,4-4h11.998c2.211,0,4,1.789,4,4
		C163.976,326.162,162.188,327.951,159.977,327.951z"/>
	<path style="fill:#3A3847;" d="M163.976,511.923c-6.616,0-11.999-5.382-11.999-11.998c0-2.211,1.789-4,4-4s4,1.789,4,4
		c0,2.203,1.793,3.999,4,3.999s4-1.796,4-3.999c0-2.211,1.789-4,3.999-4c2.211,0,4,1.789,4,4
		C175.974,506.541,170.592,511.923,163.976,511.923z"/>
	<path style="fill:#3A3847;" d="M347.948,511.923c-6.616,0-11.998-5.382-11.998-11.998c0-2.211,1.788-4,3.999-4
		c2.21,0,3.999,1.789,3.999,4c0,2.203,1.797,3.999,4,3.999c2.202,0,3.999-1.796,3.999-3.999c0-2.211,1.789-4,3.999-4
		c2.211,0,4,1.789,4,4C359.946,506.541,354.564,511.923,347.948,511.923z"/>
</g>
<g>
</g>
<g>
</g>
<g>
</g>
<g>
</g>
<g>
</g>
<g>
</g>
<g>
</g>
<g>
</g>
<g>
</g>
<g>
</g>
<g>
</g>
<g>
</g>
<g>
</g>
<g>
</g>
<g>
</g>
</svg>
